<svg xmlns="http://www.w3.org/2000/svg" version="1.1" xmlns:xlink="http://www.w3.org/1999/xlink" xmlns:svgjs="http://svgjs.dev/svgjs" viewBox="0 0 800 800"><defs><linearGradient x1="50%" y1="0%" x2="50%" y2="100%" id="ccchaos-grad"><stop stop-color="hsl(205, 69%, 60%)" stop-opacity="1" offset="0%"></stop><stop stop-color="hsl(205, 69%, 80%)" stop-opacity="1" offset="100%"></stop></linearGradient></defs><g stroke-width="2" stroke="url(#ccchaos-grad)" fill="none" stroke-linecap="round"><path d="M-17.89 -14.52Q-4.54 -17.01 8.8 -19.6 22.16 -22.04 35.51 -24.06 48.86 -25.47 62.21 -26.13 75.56 -25.97 88.91 -25.01 102.26 -23.35 115.61 -21.14 128.96 -18.62 142.32 -16.03 155.67 -13.64 169.02 -11.69 182.37 -10.38 195.72 -9.83 209.07 -10.1 222.42 -11.17 235.77 -12.92 249.12 -15.19 262.48 -17.74 275.83 -20.31 289.18 -22.65 302.53 -24.52 315.88 -25.74 329.23 -26.17 342.58 -25.78 355.93 -24.61 369.28 -22.78 382.64 -20.46 395.99 -17.89 409.34 -15.33 422.69 -13.05 436.04 -11.26 449.39 -10.14 462.74 -9.82 476.09 -10.32 489.44 -11.6 502.8 -13.51 516.15 -15.88 529.5 -18.46 542.85 -21 556.2 -23.23 569.55 -24.93 582.9 -25.94 596.25 -26.15 609.6 -25.53 622.96 -24.16 636.31 -22.17 649.66 -19.76 663.01 -17.17 676.36 -14.66 689.71 -12.49 703.06 -10.87 716.41 -9.97 729.76 -9.88 743.12 -10.6 756.47 -12.07 769.82 -14.14 783.17 -16.59 796.52 -19.18 809.87 -21.66 823.27 -18.59 809.29 -1.52 796.53 10.35 786.89 22.23 781.8 34.12 781.98 46 787.41 57.88 797.3 69.76 810.21 81.65 824.25 93.53 837.38 105.41 847.69 117.29 853.66 129.18 854.44 141.06 849.9 152.94 840.71 164.83 828.21 176.71 814.22 188.59 800.78 200.47 789.85 212.36 783.02 224.24 781.29 236.12 784.92 248.01 793.36 259.89 805.4 271.77 819.27 283.65 832.96 295.54 844.47 307.42 852.11 319.3 854.78 331.19 852.09 343.07 844.43 354.95 832.91 366.83 819.22 378.72 805.35 390.6 793.32 402.48 784.89 414.37 781.29 426.25 783.04 438.13 789.88 450.01 800.83 461.9 814.27 473.78 828.26 485.66 840.75 497.54 849.93 509.43 854.45 521.31 853.65 533.19 847.66 545.08 837.34 556.96 824.2 568.84 810.15 580.72 797.25 592.61 787.38 604.49 781.97 616.37 781.81 628.26 786.92 640.14 796.57 652.02 809.34 663.9 823.37 675.79 836.62 687.67 847.15 699.55 853.43 711.44 854.55 723.32 850.33 735.2 836.77 752.51 823.2 776.42 809.64 804.5 796.07 833.95 782.51 861.79 768.94 885.22 755.38 901.89 741.81 910.11 728.25 909.06 714.69 898.85 701.12 880.49 687.56 855.85 673.99 827.4 660.43 798 646.86 770.61 633.3 748 619.73 732.42 606.17 725.46 592.6 727.82 579.04 739.25 565.47 758.6 551.91 783.94 538.34 812.7 524.78 841.99 511.21 868.87 497.65 890.63 484.08 905.08 470.52 910.76 456.95 907.11 443.39 894.48 429.82 874.16 416.26 848.19 402.69 819.18 389.13 790.04 375.56 763.72 362 742.87 348.43 729.57 334.87 725.18 321.3 730.12 307.74 743.91 294.17 765.16 280.61 791.72 267.04 820.93 253.48 849.85 239.91 875.55 226.35 895.47 212.78 907.58 199.22 910.68 185.65 904.45 172.09 889.52 158.53 867.39 144.96 840.29 131.4 810.94 117.83 782.31 104.27 757.26 90.7 738.33 77.14 727.42 63.57 725.62 50.01 733.12 36.44 749.16 22.88 772.13 9.31 799.72 -4.24 829.15 -17.81 857.45 -17.78 843.83 -17.79 830.2 -17.83 816.58 -17.89 802.95 -17.96 789.33 -18.04 775.7 -18.12 762.08 -18.17 748.45 -18.2 734.83 -18.2 721.2 -18.17 707.58 -18.11 693.95 -18.04 680.33 -17.96 666.7 -17.88 653.08 -17.82 639.46 -17.79 625.83 -17.78 612.21 -17.81 598.58 -17.86 584.96 -17.94 571.33 -18.02 557.71 -18.09 544.08 -18.16 530.46 -18.2 516.83 -18.21 503.21 -18.19 489.58 -18.14 475.96 -18.07 462.33 -17.99 448.71 -17.91 435.09 -17.84 421.46 -17.8 407.84 -17.78 394.21 -17.8 380.59 -17.84 366.96 -17.91 353.34 -17.99 339.71 -18.07 326.09 -18.14 312.46 -18.19 298.84 -18.21 285.21 -18.2 271.59 -18.16 257.96 -18.09 244.34 -18.02 230.71 -17.94 217.09 -17.86 203.47 -17.81 189.84 -17.78 176.22 -17.79 162.59 -17.82 148.97 -17.88 135.34 -17.96 121.72 -18.04 108.09 -18.11 94.47 -18.17 80.84 -18.2 67.22 -18.2 53.59 -18.17 39.97 -18.12 26.34 -18.05 12.72 -17.96 -0.89 -17.89 -14.52" stroke-dasharray="3 10" transform="rotate(0, 400, 400)" opacity="0.10"></path><path d="M-6.85 -5.42Q5.97 -8.29 18.8 -11.03 31.63 -13.4 44.47 -15.15 57.3 -16.12 70.13 -16.22 82.96 -15.44 95.8 -13.86 108.63 -11.61 121.46 -8.93 134.29 -6.07 147.13 -3.29 159.96 -0.87 172.79 0.96 185.62 2.04 198.46 2.26 211.29 1.59 224.12 0.1 236.95 -2.06 249.79 -4.7 262.62 -7.56 275.45 -10.36 288.28 -12.84 301.12 -14.77 313.95 -15.95 326.78 -16.28 339.61 -15.72 352.45 -14.33 365.28 -12.24 378.11 -9.64 390.94 -6.8 403.78 -3.97 416.61 -1.43 429.44 0.56 442.27 1.85 455.11 2.29 467.94 1.84 480.77 0.55 493.6 -1.46 506.44 -4 519.27 -6.82 532.1 -9.67 544.93 -12.26 557.77 -14.34 570.6 -15.73 583.43 -16.28 596.26 -15.94 609.1 -14.75 621.93 -12.82 634.76 -10.34 647.59 -7.53 660.43 -4.67 673.26 -2.04 686.09 0.11 698.92 1.6 711.76 2.26 724.59 2.04 737.42 0.95 750.25 -0.88 763.09 -3.31 775.92 -6.09 788.75 -8.96 801.25 -6.87 788.26 9.65 778.19 21.41 772.11 33.18 770.85 44.95 774.59 56.71 782.81 68.48 794.38 80.24 807.69 92.01 820.91 103.77 832.2 115.54 840.01 127.3 843.25 139.07 841.47 150.84 834.93 162.6 824.52 174.37 811.69 186.13 798.21 197.9 785.95 209.66 776.59 221.43 771.44 233.19 771.21 244.96 775.93 256.72 784.94 268.49 797.01 280.26 810.45 292.02 823.42 303.79 834.12 315.55 841.06 327.32 843.29 339.08 840.5 350.85 833.08 362.61 822.05 374.38 808.94 386.15 795.55 397.91 783.75 409.68 775.17 421.44 770.99 433.21 771.78 444.97 777.45 456.74 787.2 468.5 799.69 480.27 813.2 492.04 825.84 503.8 835.88 515.57 841.92 527.33 843.13 539.1 839.34 550.86 831.08 562.63 819.49 574.39 806.17 586.16 792.96 597.93 781.7 609.69 773.93 621.46 770.74 633.22 772.56 644.99 779.14 656.75 789.58 668.52 802.42 680.28 815.9 692.05 828.15 703.82 837.47 715.58 842.57 727.35 842.76 739.11 829.49 761.18 816.22 787.61 802.96 815.9 789.69 843.34 776.42 867.31 763.16 885.52 749.89 896.23 736.62 898.43 723.36 891.9 710.09 877.26 696.82 855.91 683.55 829.9 670.29 801.7 657.02 774 643.75 749.45 630.49 730.4 617.22 718.66 603.95 715.35 590.69 720.79 577.42 734.46 564.15 755.06 550.89 780.61 537.62 808.68 524.35 836.59 511.09 861.67 497.82 881.54 484.55 894.29 471.29 898.7 458.02 894.36 444.75 881.69 431.48 861.88 418.22 836.83 404.95 808.93 391.68 780.85 378.42 755.26 365.15 734.62 351.88 720.88 338.62 715.36 325.35 718.59 312.08 730.26 298.82 749.26 285.55 773.77 272.28 801.44 259.02 829.65 245.75 855.7 232.48 877.1 219.21 891.8 205.95 898.41 192.68 896.29 179.41 885.65 166.15 867.5 152.88 843.57 139.61 816.15 126.35 787.86 113.08 761.39 99.81 739.28 86.55 723.63 73.28 715.94 60.01 716.94 46.75 726.54 33.48 743.82 20.21 767.13 6.95 794.24 -6.31 822.58 -6.32 809.64 -6.41 796.7 -6.59 783.76 -6.82 770.83 -7.08 757.89 -7.33 744.95 -7.53 732.01 -7.65 719.08 -7.69 706.14 -7.63 693.2 -7.48 680.26 -7.26 667.33 -7.01 654.39 -6.76 641.45 -6.53 628.51 -6.38 615.58 -6.3 602.64 -6.33 589.7 -6.44 576.76 -6.63 563.83 -6.88 550.89 -7.13 537.95 -7.37 525.01 -7.56 512.08 -7.67 499.14 -7.68 486.2 -7.6 473.26 -7.44 460.33 -7.21 447.39 -6.96 434.45 -6.71 421.51 -6.5 408.58 -6.35 395.64 -6.3 382.7 -6.34 369.76 -6.48 356.82 -6.68 343.89 -6.93 330.95 -7.19 318.01 -7.42 305.07 -7.59 292.14 -7.68 279.2 -7.67 266.26 -7.58 253.32 -7.4 240.39 -7.16 227.45 -6.91 214.51 -6.66 201.57 -6.46 188.64 -6.34 175.7 -6.3 162.76 -6.36 149.82 -6.51 136.89 -6.73 123.95 -6.98 111.01 -7.24 98.07 -7.46 85.14 -7.61 72.2 -7.69 59.26 -7.66 46.32 -7.55 33.39 -7.35 20.45 -7.11 7.51 -6.85 -5.42" stroke-dasharray="2 12" transform="rotate(2.72972972972973, 400, 400)" opacity="0.66"></path><path d="M3.86 2.98Q16.17 -0.04 28.48 -2.71 40.79 -4.77 53.1 -6.03 65.41 -6.39 77.73 -5.81 90.04 -4.34 102.35 -2.12 114.66 0.65 126.97 3.73 139.28 6.83 151.59 9.68 163.91 12.01 176.22 13.62 188.53 14.36 200.84 14.16 213.15 13.04 225.46 11.11 237.77 8.53 250.09 5.54 262.4 2.41 274.71 -0.56 287.02 -3.14 299.33 -5.06 311.64 -6.17 323.95 -6.36 336.27 -5.61 348.58 -3.99 360.89 -1.65 373.2 1.2 385.51 4.3 397.82 7.38 410.13 10.15 422.45 12.37 434.76 13.83 447.07 14.39 459.38 14.02 471.69 12.75 484 10.68 496.32 8.01 508.63 4.97 520.94 1.85 533.25 -1.07 545.56 -3.54 557.87 -5.33 570.18 -6.27 582.5 -6.29 594.81 -5.37 607.12 -3.61 619.43 -1.16 631.74 1.75 644.05 4.88 656.36 7.92 668.68 10.61 680.99 12.7 693.3 14 705.61 14.4 717.92 13.86 730.23 12.42 742.54 10.23 754.86 7.47 767.17 4.4 779.44 5.71 769.18 21.83 762.48 33.54 760.17 45.24 762.55 56.94 769.32 68.65 779.57 80.35 791.98 92.06 804.92 103.76 816.69 115.46 825.74 127.17 830.9 138.87 831.48 150.58 827.42 162.28 819.24 173.98 808.01 185.69 795.21 197.39 782.51 209.1 771.58 220.8 763.85 232.5 760.32 244.21 761.48 255.91 767.15 267.62 776.61 279.32 788.6 291.02 801.56 302.73 813.8 314.43 823.7 326.14 829.97 337.84 831.79 349.55 828.92 361.25 821.74 372.95 811.18 384.66 798.63 396.36 785.74 408.07 774.19 419.77 765.5 431.47 760.81 443.18 760.72 454.88 765.25 466.59 773.82 478.29 785.29 489.99 798.16 501.7 810.75 513.4 821.4 525.11 828.73 536.81 831.77 548.51 830.12 560.22 824 571.92 814.21 583.63 802.04 595.33 789.07 607.03 777.01 618.74 767.44 630.44 761.61 642.15 760.28 653.85 763.64 665.55 771.23 677.26 782.07 688.96 794.73 700.67 807.56 712.37 818.87 724.07 827.19 735.78 831.42 747.48 818.51 772.42 805.6 799.49 792.69 826.24 779.78 850.26 766.87 869.37 753.95 881.85 741.04 886.57 728.13 883.09 715.22 871.75 702.31 853.55 689.4 830.15 676.49 803.66 663.58 776.48 650.67 751.06 637.76 729.71 624.85 714.35 611.94 706.37 599.03 706.49 586.12 714.71 573.21 730.27 560.3 751.78 547.39 777.29 534.48 804.48 521.57 830.91 508.66 854.18 495.75 872.19 482.84 883.32 469.93 886.54 457.02 881.58 444.11 868.89 431.2 849.6 418.29 825.46 405.38 798.67 392.47 771.63 379.56 746.79 366.65 726.4 353.74 712.31 340.82 705.78 327.91 707.4 315 717.04 302.09 733.82 289.18 756.21 276.27 782.21 263.36 809.45 250.45 835.47 237.54 857.93 224.63 874.78 211.72 884.51 198.81 886.24 185.9 879.81 172.99 865.81 160.08 845.49 147.17 820.69 134.26 793.66 121.35 766.85 108.44 742.67 95.53 723.31 82.62 710.52 69.71 705.46 56.8 708.58 43.89 719.61 30.98 737.55 18.07 760.77 5.16 787.17 5.02 774.92 4.75 762.66 4.37 750.41 3.95 738.16 3.54 725.91 3.18 713.65 2.93 701.4 2.82 689.15 2.87 676.89 3.06 664.64 3.37 652.39 3.77 640.14 4.19 627.88 4.59 615.63 4.91 603.38 5.11 591.12 5.17 578.87 5.07 566.62 4.83 554.36 4.48 542.11 4.07 529.86 3.64 517.61 3.27 505.35 2.99 493.1 2.84 480.85 2.84 468.59 2.99 456.34 3.28 444.09 3.66 431.83 4.08 419.58 4.49 407.33 4.84 395.08 5.07 382.82 5.17 370.57 5.11 358.32 4.9 346.06 4.58 333.81 4.18 321.56 3.75 309.31 3.36 297.05 3.05 284.8 2.86 272.55 2.83 260.29 2.94 248.04 3.19 235.79 3.55 223.53 3.97 211.28 4.39 199.03 4.76 186.78 5.03 174.52 5.16 162.27 5.14 150.02 4.97 137.76 4.67 125.51 4.29 113.26 3.86 101.01 3.46 88.75 3.12 76.5 2.9 64.25 2.82 51.99 2.9 39.74 3.12 27.49 3.45 15.23 3.86 2.98" stroke-dasharray="2 6" transform="rotate(5.45945945945946, 400, 400)" opacity="0.58"></path><path d="M14.29 10.87Q26.09 7.94 37.9 5.61 49.71 4.08 61.51 3.48 73.32 3.87 85.13 5.21 96.93 7.39 108.74 10.21 120.55 13.45 132.35 16.82 144.16 20.03 155.97 22.81 167.77 24.92 179.58 26.19 191.39 26.5 203.19 25.82 215 24.22 226.8 21.83 238.61 18.86 250.42 15.55 262.22 12.2 274.03 9.09 285.84 6.48 297.64 4.6 309.45 3.61 321.26 3.59 333.06 4.55 344.87 6.4 356.68 8.98 368.48 12.08 380.29 15.43 392.1 18.74 403.9 21.73 415.71 24.15 427.51 25.78 439.32 26.49 451.13 26.22 462.93 24.98 474.74 22.9 486.55 20.14 498.35 16.94 510.16 13.57 521.97 10.32 533.77 7.48 545.58 5.27 557.39 3.9 569.19 3.48 581 4.04 592.81 5.54 604.61 7.84 616.42 10.76 628.23 14.04 640.03 17.4 651.84 20.56 663.64 23.24 675.45 25.21 687.26 26.31 699.06 26.45 710.87 25.6 722.68 23.85 734.48 21.34 746.29 18.29 758.93 19.13 752.75 34.98 749.73 46.65 751.09 58.33 756.64 70 765.71 81.68 777.16 93.35 789.59 105.03 801.45 116.7 811.27 128.38 817.83 140.05 820.33 151.73 818.44 163.4 812.41 175.08 802.99 186.75 791.33 198.43 778.89 210.1 767.2 221.78 757.72 233.45 751.62 245.13 749.66 256.8 752.07 268.48 758.56 280.15 768.33 291.83 780.16 303.5 792.6 315.18 804.09 326.85 813.21 338.53 818.84 350.2 820.27 361.88 817.33 373.55 810.39 385.23 800.3 396.9 788.31 408.58 775.91 420.25 764.64 431.93 755.89 443.6 750.74 455.28 749.84 466.95 753.3 478.63 760.68 490.3 771.08 501.98 783.2 513.65 795.54 525.33 806.58 537 814.94 548.68 819.59 560.35 819.95 572.03 815.99 583.7 808.18 595.38 797.5 607.05 785.27 618.73 773 630.4 762.22 642.08 754.27 653.75 750.12 665.43 750.29 677.1 754.77 688.78 762.99 700.45 773.93 712.13 786.25 723.8 798.41 735.48 808.91 747.15 816.45 758.83 803.95 784.7 791.45 810.59 778.95 834.3 766.45 853.79 753.95 867.4 741.45 873.97 728.95 872.92 716.45 864.37 703.95 849.02 691.45 828.2 678.95 803.69 666.45 777.58 653.95 752.1 641.45 729.44 628.95 711.52 616.45 699.89 603.95 695.53 591.45 698.82 578.95 709.48 566.45 726.6 553.95 748.7 541.45 773.91 528.95 800.07 516.46 824.94 503.96 846.39 491.46 862.6 478.96 872.17 466.46 874.28 453.96 868.77 441.46 856.09 428.96 837.33 416.46 814.1 403.96 788.38 391.46 762.37 378.96 738.3 366.46 718.22 353.96 703.84 341.46 696.41 328.96 696.55 316.46 704.25 303.96 718.85 291.46 739.11 278.96 763.29 266.46 789.33 253.96 814.99 241.46 838.1 228.96 856.66 216.46 869.09 203.96 874.34 191.46 871.95 178.96 862.12 166.46 845.7 153.97 824.09 141.47 799.14 128.97 772.98 116.47 747.84 103.97 725.88 91.47 708.98 78.97 698.57 66.47 695.56 53.97 700.19 41.47 712.07 18.8 726.99 14.48 706.6 13.96 695.01 13.58 683.41 13.37 671.82 13.36 660.22 13.56 648.62 13.93 637.03 14.43 625.43 15.01 613.84 15.58 602.24 16.08 590.65 16.45 579.05 16.63 567.46 16.62 555.86 16.4 544.27 16.01 532.67 15.49 521.07 14.91 509.48 14.34 497.88 13.86 486.29 13.51 474.69 13.35 463.1 13.39 451.5 13.63 439.91 14.04 428.31 14.57 416.72 15.15 405.12 15.71 393.52 16.19 381.93 16.51 370.33 16.65 358.74 16.58 347.14 16.32 335.55 15.89 323.95 15.35 312.36 14.77 300.76 14.21 289.17 13.76 277.57 13.45 265.97 13.34 254.38 13.43 242.78 13.72 231.19 14.16 219.59 14.71 208 15.29 196.4 15.84 184.81 16.28 173.21 16.56 161.62 16.65 150.02 16.53 138.42 16.23 126.83 15.77 115.23 15.21 103.64 14.63 92.04 14.09 80.45 13.67 68.85 13.41 57.26 13.34 45.66 13.48 34.07 13.81 22.47 14.29 10.87" stroke-dasharray="13 10" transform="rotate(8.18918918918919, 400, 400)" opacity="0.19"></path><path d="M24.52 18.51Q35.85 15.95 47.18 14.2 58.52 13.4 69.85 13.62 81.18 14.84 92.52 16.96 103.85 19.81 115.18 23.15 126.52 26.73 137.85 30.25 149.18 33.42 160.52 35.99 171.85 37.76 183.18 38.58 194.52 38.38 205.85 37.18 217.18 35.08 228.52 32.25 239.85 28.91 251.19 25.34 262.52 21.82 273.85 18.63 285.19 16.04 296.52 14.26 307.85 13.42 319.19 13.59 330.52 14.77 341.85 16.85 353.19 19.68 364.52 23.01 375.85 26.58 387.19 30.1 398.52 33.3 409.85 35.9 421.19 37.71 432.52 38.57 443.85 38.41 455.19 37.25 466.52 35.19 477.85 32.38 489.19 29.06 500.52 25.49 511.86 21.96 523.19 18.75 534.52 16.13 545.86 14.31 557.19 13.43 568.52 13.57 579.86 14.7 591.19 16.75 602.52 19.55 613.86 22.86 625.19 26.43 636.52 29.96 647.86 33.18 659.19 35.81 670.52 37.65 681.86 38.55 693.19 38.44 704.52 37.32 715.86 35.29 727.19 32.51 740.66 33.24 739.38 48.94 740.01 60.6 744.62 72.25 752.67 83.9 763.21 95.56 775.02 107.21 786.7 118.87 796.9 130.52 804.42 142.17 808.38 153.83 808.31 165.48 804.23 177.13 796.61 188.79 786.35 200.44 774.64 212.1 762.85 223.75 752.37 235.4 744.42 247.06 739.93 258.71 739.42 270.36 742.96 282.02 750.13 293.67 760.1 305.33 771.68 316.98 783.54 328.63 794.28 340.29 802.65 351.94 807.67 363.59 808.74 375.25 805.75 386.9 799.04 398.56 789.41 410.21 777.97 421.86 766.06 433.52 755.08 445.17 746.32 456.83 740.79 468.48 739.15 480.13 741.59 491.79 747.81 503.44 757.11 515.09 768.37 526.75 780.3 538.4 791.48 550.06 800.62 561.71 806.65 573.36 808.85 585.02 806.98 596.67 801.25 608.32 792.32 619.98 781.26 631.63 769.34 643.29 757.97 654.94 748.47 666.59 741.96 678.25 739.2 689.9 740.51 701.55 745.74 713.21 754.27 724.86 765.11 736.52 776.99 748.17 788.52 759.82 798.35 771.48 786.31 796.42 774.26 819.55 762.22 839.01 750.17 853.21 738.13 861.03 726.08 861.82 714.04 855.52 701.99 842.64 689.95 824.22 677.91 801.75 665.86 777.04 653.82 752.08 641.77 728.89 629.73 709.34 617.68 695.01 605.64 687.05 593.59 686.12 581.55 692.27 569.5 705.02 557.46 723.34 545.41 745.75 533.37 770.43 521.32 795.41 509.28 818.65 497.23 838.29 485.19 852.75 473.14 860.84 461.1 861.93 449.05 855.92 437.01 843.29 424.97 825.08 412.92 802.74 400.88 778.08 388.83 753.09 376.79 729.79 364.74 710.06 352.7 695.48 340.65 687.25 328.61 686.01 316.56 691.88 304.52 704.37 292.47 722.48 280.43 744.76 268.38 769.39 256.34 794.39 244.29 817.75 232.25 837.57 220.2 852.26 208.16 860.64 196.12 862.03 184.07 856.3 172.03 843.94 159.98 825.93 147.94 803.73 135.89 779.13 123.85 754.11 111.8 730.7 99.76 710.78 87.71 695.97 75.67 687.45 63.62 685.92 51.58 691.5 29.33 697.94 24.79 677.69 24.26 666.71 23.94 655.72 23.86 644.73 24.03 633.75 24.43 622.76 25.01 611.77 25.71 600.79 26.44 589.8 27.12 578.82 27.67 567.83 28.02 556.84 28.13 545.86 28 534.87 27.63 523.88 27.07 512.9 26.38 501.91 25.65 490.92 24.96 479.94 24.39 468.95 24.01 457.97 23.86 446.98 23.96 435.99 24.3 425.01 24.84 414.02 25.51 403.03 26.24 392.05 26.94 381.06 27.53 370.07 27.94 359.09 28.13 348.1 28.06 337.12 27.75 326.13 27.24 315.14 26.58 304.16 25.85 293.17 25.14 282.18 24.53 271.2 24.09 260.21 23.88 249.22 23.91 238.24 24.18 227.25 24.67 216.27 25.31 205.28 26.03 194.29 26.75 183.31 27.38 172.32 27.85 161.33 28.1 150.35 28.1 139.36 27.86 128.37 27.4 117.39 26.77 106.4 26.06 95.41 25.33 84.43 24.69 73.44 24.19 62.46 23.91 51.47 23.87 40.48 24.08 29.5 24.52 18.51" stroke-dasharray="12 8" transform="rotate(10.91891891891892, 400, 400)" opacity="0.79"></path><path d="M34.68 26.21Q45.58 24.29 56.48 23.34 67.39 23.43 78.29 24.55 89.2 26.62 100.1 29.47 111 32.9 121.91 36.64 132.81 40.41 143.72 43.92 154.62 46.9 165.52 49.12 176.43 50.43 187.33 50.71 198.24 49.95 209.14 48.21 220.05 45.61 230.95 42.36 241.85 38.69 252.76 34.9 263.66 31.27 274.57 28.07 285.47 25.56 296.37 23.91 307.28 23.26 318.18 23.65 329.09 25.06 339.99 27.37 350.9 30.42 361.8 33.97 372.7 37.75 383.61 41.47 394.51 44.85 405.42 47.63 416.32 49.61 427.22 50.62 438.13 50.6 449.03 49.54 459.94 47.53 470.84 44.72 481.74 41.32 492.65 37.59 503.55 33.82 514.46 30.29 525.36 27.26 536.27 24.98 547.17 23.61 558.07 23.26 568.98 23.96 579.88 25.64 590.79 28.19 601.69 31.41 612.59 35.05 623.5 38.85 634.4 42.5 645.31 45.73 656.21 48.3 667.11 50 678.02 50.72 688.92 50.4 699.83 49.05 710.73 46.79 725.31 47.83 729.2 63.49 733.13 75.11 740.36 86.73 750.08 98.34 761.22 109.96 772.57 121.58 782.85 133.19 790.95 144.81 795.96 156.43 797.34 168.04 794.93 179.66 789 191.27 780.2 202.89 769.5 214.51 758.09 226.12 747.21 237.74 738.08 249.36 731.69 260.97 728.76 272.59 729.6 284.21 734.13 295.82 741.84 307.44 751.88 319.06 763.15 330.67 774.4 342.29 784.39 353.91 792.03 365.52 796.46 377.14 797.2 388.76 794.17 400.37 787.7 411.99 778.51 423.61 767.6 435.22 756.19 446.84 745.53 458.46 736.79 470.07 730.95 481.69 728.64 493.3 730.12 504.92 735.22 516.54 743.39 528.15 753.72 539.77 765.07 551.39 776.2 563 785.86 574.62 793.01 586.24 796.85 597.85 796.95 609.47 793.31 621.09 786.32 632.7 776.76 644.32 765.69 655.94 754.32 667.55 743.9 679.17 735.59 690.79 730.3 702.4 728.62 714.02 730.73 725.64 736.4 737.25 745 748.87 755.58 760.49 766.99 772.1 777.95 783.72 766.39 806.08 754.83 825.17 743.27 839.53 731.71 848.06 720.15 850.13 708.59 845.57 697.03 834.72 685.47 818.43 673.91 797.91 662.35 774.74 650.79 750.68 639.23 727.55 627.68 707.12 616.12 690.94 604.56 680.24 593 675.83 581.44 678.06 569.88 686.74 558.32 701.23 546.76 720.41 535.2 742.83 523.64 766.79 512.08 790.46 500.52 812.04 488.96 829.88 477.4 842.64 465.84 849.35 454.28 849.48 442.72 843.04 431.16 830.5 419.6 812.84 408.04 791.38 396.48 767.76 384.92 743.78 373.36 721.26 361.8 701.92 350.24 687.22 338.68 678.28 327.12 675.79 315.57 679.93 304.01 690.39 292.45 706.38 280.89 726.66 269.33 749.72 257.77 773.78 246.21 797.02 234.65 817.67 223.09 834.17 211.53 845.25 199.97 850.07 188.41 848.27 176.85 839.99 165.29 825.85 153.73 806.92 142.17 784.66 130.61 760.75 119.05 737.01 107.49 715.24 95.93 697.11 84.37 683.99 72.81 676.88 61.25 676.32 43.5 683.21 36.43 673.63 35.62 663.19 34.97 652.75 34.54 642.3 34.38 631.86 34.5 621.42 34.91 610.98 35.54 600.53 36.33 590.09 37.2 579.65 38.04 569.21 38.77 558.76 39.3 548.32 39.58 537.88 39.57 527.44 39.28 517 38.74 506.55 38 496.11 37.15 485.67 36.29 475.23 35.5 464.78 34.88 454.34 34.49 443.9 34.38 433.46 34.55 423.01 35 412.57 35.66 402.13 36.48 391.69 37.35 381.25 38.18 370.8 38.88 360.36 39.37 349.92 39.6 339.48 39.54 329.03 39.21 318.59 38.62 308.15 37.86 297.71 37.01 287.26 36.15 276.82 35.38 266.38 34.8 255.94 34.45 245.5 34.39 235.05 34.61 224.61 35.1 214.17 35.79 203.73 36.62 193.28 37.49 182.84 38.31 172.4 38.98 161.96 39.43 151.51 39.61 141.07 39.51 130.63 39.12 120.19 38.51 109.74 37.72 99.3 36.86 88.86 36.01 78.42 35.27 67.98 34.72 57.53 34.42 47.09 34.41 36.65 34.68 26.21" stroke-dasharray="6 6" transform="rotate(13.64864864864865, 400, 400)" opacity="0.57"></path><path d="M44.93 34.31Q55.46 33.26 65.98 33.27 76.51 34.34 87.03 36.38 97.56 39.25 108.08 42.74 118.61 46.62 129.13 50.59 139.66 54.38 150.18 57.7 160.71 60.34 171.23 62.09 181.76 62.83 192.28 62.51 202.81 61.16 213.33 58.86 223.86 55.78 234.38 52.15 244.91 48.22 255.43 44.27 265.96 40.59 276.48 37.44 287.01 35.04 297.53 33.58 308.05 33.14 318.58 33.77 329.1 35.41 339.63 37.95 350.15 41.22 360.68 44.97 371.2 48.93 381.73 52.83 392.25 56.38 402.78 59.33 413.3 61.47 423.83 62.65 434.35 62.78 444.88 61.85 455.4 59.93 465.93 57.15 476.45 53.72 486.98 49.88 497.5 45.91 508.03 42.08 518.55 38.68 529.08 35.94 539.6 34.07 550.13 33.19 560.65 33.37 571.18 34.6 581.7 36.79 592.22 39.78 602.75 43.35 613.27 47.26 623.8 51.22 634.32 54.95 644.85 58.18 655.37 60.69 665.9 62.28 676.42 62.85 686.95 62.36 697.47 60.85 713.28 62.59 722.05 78.31 728.66 89.85 737.69 101.39 748.2 112.93 759.11 124.48 769.28 136.02 777.65 147.56 783.36 159.1 785.82 170.64 784.77 182.18 780.32 193.73 772.93 205.27 763.36 216.81 752.62 228.35 741.81 239.89 732.06 251.44 724.38 262.98 719.56 274.52 718.11 286.06 720.17 297.6 725.54 309.15 733.65 320.69 743.66 332.23 754.54 343.77 765.16 355.31 774.41 366.85 781.33 378.4 785.21 389.94 785.64 401.48 782.58 413.02 776.35 424.56 767.59 436.11 757.22 447.65 746.3 459.19 735.97 470.73 727.3 482.27 721.2 493.81 718.29 505.36 718.88 516.9 722.91 528.44 729.95 539.98 739.28 551.52 749.93 563.07 760.8 574.61 770.75 586.15 778.75 597.69 783.98 609.23 785.89 620.78 784.28 632.32 779.33 643.86 771.53 655.4 761.71 666.94 750.88 678.48 740.17 690.03 730.68 701.57 723.41 713.11 719.1 724.65 718.2 736.19 720.81 747.74 726.66 759.28 735.13 770.82 745.36 782.36 756.27 793.9 745.21 812.35 734.15 826.49 723.09 835.29 712.03 838.13 700.97 834.81 689.91 825.56 678.85 811.05 667.79 792.32 656.73 770.7 645.66 747.74 634.6 725.08 623.54 704.36 612.48 687.04 601.42 674.36 590.36 667.25 579.3 666.19 568.24 671.28 557.18 682.14 546.12 698 535.06 717.72 524 739.89 512.94 762.93 501.88 785.19 490.81 805.08 479.75 821.16 468.69 832.3 457.63 837.69 446.57 836.95 435.51 830.13 424.45 817.72 413.39 800.61 402.33 780.02 391.27 757.42 380.21 734.44 369.15 712.71 358.09 693.79 347.03 679.04 335.96 669.51 324.9 665.88 313.84 668.41 302.78 676.92 291.72 690.81 280.66 709.07 269.6 730.4 258.54 753.28 247.48 776.06 236.42 797.13 225.36 814.96 214.3 828.29 203.24 836.16 192.18 838.01 181.11 833.7 170.05 823.55 158.99 808.28 147.93 788.98 136.87 767.03 125.81 744.01 114.75 721.56 103.69 701.29 92.63 684.64 81.57 672.82 70.51 666.66 53.42 664.64 46.45 652.71 45.68 642.73 45.14 632.76 44.9 622.79 44.99 612.81 45.38 602.84 46.05 592.86 46.91 582.89 47.89 572.92 48.88 562.94 49.78 552.97 50.49 542.99 50.95 533.02 51.09 523.04 50.92 513.07 50.44 503.1 49.71 493.12 48.8 483.15 47.81 473.17 46.83 463.2 45.98 453.22 45.33 443.25 44.97 433.28 44.91 423.3 45.18 413.33 45.74 403.35 46.53 393.38 47.47 383.41 48.47 373.43 49.42 363.46 50.22 353.48 50.79 343.51 51.07 333.53 51.03 323.56 50.68 313.59 50.04 303.61 49.2 293.64 48.23 283.66 47.23 273.69 46.32 263.71 45.58 253.74 45.08 243.77 44.9 233.79 45.03 223.82 45.47 213.84 46.17 203.87 47.06 193.9 48.05 183.92 49.03 173.95 49.91 163.97 50.59 154 50.99 144.02 51.09 134.05 50.86 124.08 50.34 114.1 49.58 104.13 48.65 94.15 47.65 84.18 46.69 74.21 45.86 64.23 45.26 54.26 44.94 44.28 44.93 34.31" stroke-dasharray="13 6" transform="rotate(16.37837837837838, 400, 400)" opacity="0.25"></path><path d="M55.46 43.16Q65.66 43.15 75.85 44.21 86.05 46.26 96.25 49.16 106.44 52.73 116.64 56.72 126.84 60.86 137.03 64.87 147.23 68.49 157.43 71.47 167.62 73.62 177.82 74.78 188.01 74.88 198.21 73.91 208.41 71.95 218.6 69.11 228.8 65.59 239 61.63 249.19 57.49 259.39 53.46 269.59 49.79 279.78 46.75 289.98 44.52 300.17 43.27 310.37 43.08 320.57 43.95 330.76 45.83 340.96 48.6 351.16 52.07 361.35 56 371.55 60.13 381.74 64.19 391.94 67.9 402.14 71.01 412.33 73.31 422.53 74.65 432.73 74.94 442.92 74.16 453.12 72.36 463.32 69.66 473.51 66.24 483.71 62.34 493.9 58.22 504.1 54.14 514.3 50.39 524.49 47.22 534.69 44.84 544.89 43.42 555.08 43.03 565.28 43.72 575.48 45.44 585.67 48.06 595.87 51.42 606.06 55.29 616.26 59.41 626.46 63.5 636.65 67.29 646.85 70.52 657.05 72.97 667.24 74.49 677.44 74.97 687.63 74.37 697.83 72.74 708.03 70.19 711.32 81.6 717.51 93.01 725.98 104.42 735.91 115.84 746.35 127.25 756.26 138.66 764.68 150.07 770.79 161.49 774.01 172.9 774 184.31 770.78 195.72 764.66 207.14 756.23 218.55 746.32 229.96 735.89 241.37 725.96 252.78 717.49 264.2 711.31 275.61 708.02 287.02 707.95 298.43 711.1 309.85 717.16 321.26 725.54 332.67 735.43 344.08 745.86 355.49 755.81 366.91 764.33 378.32 770.57 389.73 773.93 401.14 774.08 412.56 771 423.97 765.01 435.38 756.67 446.79 746.81 458.21 736.38 469.62 726.4 481.03 717.84 492.44 711.54 503.85 708.11 515.27 707.88 526.68 710.88 538.09 716.81 549.5 725.1 560.92 734.94 572.33 745.37 583.74 755.37 595.15 763.97 606.56 770.33 617.98 773.84 629.39 774.14 640.8 771.22 652.21 765.35 663.63 757.11 675.04 747.29 686.45 736.87 697.86 726.85 709.28 718.2 720.69 711.78 732.1 708.2 743.51 707.82 754.92 710.67 766.34 716.47 777.75 724.67 789.16 734.45 800.57 723.89 814.16 713.32 822.84 702.76 826.01 692.19 823.48 681.63 815.4 671.06 802.33 660.5 785.14 649.93 764.98 639.37 743.21 628.8 721.29 618.24 700.7 607.67 682.81 597.11 668.83 586.54 659.7 575.98 656.03 565.41 658.07 554.85 665.67 544.28 678.34 533.72 695.22 523.15 715.17 512.59 736.85 502.02 758.82 491.46 779.59 480.89 797.76 470.33 812.12 459.76 821.71 449.2 825.87 438.63 824.33 428.07 817.19 417.5 804.94 406.94 788.39 396.37 768.65 385.81 747.06 375.24 725.06 364.68 704.13 354.11 685.68 343.55 670.94 332.98 660.91 322.42 656.26 311.85 657.3 301.29 663.96 290.72 675.8 280.16 692.01 269.59 711.52 259.03 733.01 248.46 755.03 237.9 776.11 227.33 794.83 216.77 809.94 206.2 820.41 195.64 825.55 185.07 825.01 174.51 818.83 163.94 807.41 153.38 791.54 142.81 772.27 132.25 750.9 121.68 728.87 111.12 707.65 100.55 688.67 89.99 673.2 79.42 662.29 63.05 651.89 56.37 637.53 55.75 627.95 55.44 618.36 55.48 608.77 55.86 599.19 56.55 589.6 57.48 580.01 58.55 570.43 59.67 560.84 60.72 551.25 61.6 541.67 62.23 532.08 62.55 522.49 62.51 512.91 62.14 503.32 61.46 493.73 60.54 484.15 59.46 474.56 58.35 464.97 57.29 455.39 56.4 445.8 55.77 436.21 55.45 426.63 55.47 417.04 55.84 407.45 56.51 397.87 57.43 388.28 58.5 378.69 59.62 369.11 60.67 359.52 61.57 349.93 62.21 340.35 62.54 330.76 62.52 321.17 62.16 311.59 61.5 302 60.58 292.41 59.52 282.83 58.4 273.24 57.34 263.65 56.44 254.07 55.79 244.48 55.45 234.89 55.46 225.31 55.81 215.72 56.48 206.13 57.38 196.55 58.45 186.96 59.57 177.37 60.63 167.79 61.53 158.2 62.19 148.61 62.53 139.03 62.53 129.44 62.19 119.85 61.53 110.27 60.63 100.68 59.57 91.09 58.45 81.51 57.39 71.92 56.48 62.33 55.82 52.75 55.46 43.16" stroke-dasharray="14 5" transform="rotate(19.10810810810811, 400, 400)" opacity="0.09"></path><path d="M66.41 53.07Q76.32 54.18 86.23 56.28 96.15 59.25 106.06 62.9 115.98 66.99 125.89 71.27 135.8 75.47 145.72 79.33 155.63 82.6 165.55 85.07 175.46 86.6 185.37 87.08 195.29 86.49 205.2 84.86 215.12 82.29 225.03 78.95 234.94 75.04 244.86 70.82 254.77 66.55 264.69 62.49 274.6 58.91 284.51 56.02 294.43 54.01 304.34 53.01 314.26 53.08 324.17 54.21 334.08 56.34 344 59.32 353.91 62.98 363.83 67.07 373.74 71.36 383.65 75.55 393.57 79.4 403.48 82.65 413.4 85.11 423.31 86.62 433.22 87.08 443.14 86.46 453.05 84.81 462.97 82.23 472.88 78.88 482.79 74.96 492.71 70.74 502.62 66.47 512.54 62.42 522.45 58.84 532.36 55.97 542.28 53.98 552.19 53 562.11 53.09 572.02 54.24 581.93 56.39 591.85 59.39 601.76 63.05 611.68 67.16 621.59 71.44 631.5 75.63 641.42 79.47 651.33 82.71 661.25 85.15 671.16 86.64 681.07 87.08 690.99 86.44 700.9 84.77 706.84 95.99 714.9 107.2 724.33 118.42 734.28 129.63 743.84 140.85 752.13 152.06 758.41 163.28 762.09 174.5 762.84 185.71 760.59 196.93 755.55 208.14 748.17 219.36 739.14 230.57 729.27 241.79 719.47 253 710.63 264.22 703.55 275.43 698.89 286.65 697.07 297.86 698.26 309.08 702.34 320.3 708.95 331.51 717.48 342.73 727.15 353.94 737.08 365.16 746.36 376.37 754.15 387.59 759.74 398.8 762.61 410.02 762.5 421.23 759.42 432.45 753.66 443.67 745.74 454.88 736.38 466.1 726.44 477.31 716.82 488.53 708.4 499.74 701.96 510.96 698.08 522.17 697.11 533.39 699.14 544.6 703.99 555.82 711.21 567.04 720.15 578.25 729.99 589.47 739.83 600.68 748.77 611.9 755.99 623.11 760.85 634.33 762.88 645.54 761.92 656.76 758.04 667.97 751.6 679.19 743.19 690.41 733.57 701.62 723.63 712.84 714.27 724.05 706.34 735.27 700.57 746.48 697.49 757.7 697.38 768.91 700.25 780.13 704.68 801.05 693.44 813.89 683.35 811.73 673.26 804.43 663.17 792.44 653.08 776.52 643 757.68 632.91 737.1 622.82 716.06 612.73 695.91 602.64 677.9 592.56 663.16 582.47 652.64 572.38 646.98 562.29 646.55 552.2 651.36 542.12 661.13 532.03 675.23 521.94 692.78 511.85 712.67 501.76 733.64 491.67 754.39 481.59 773.61 471.5 790.08 461.41 802.77 451.32 810.87 441.23 813.89 431.15 811.63 421.06 804.23 410.97 792.16 400.88 776.18 390.79 757.29 380.71 736.68 370.62 715.66 360.53 695.53 350.44 677.57 340.35 662.92 330.27 652.48 320.18 646.92 310.09 646.59 300 651.51 289.91 661.37 279.82 675.54 269.74 693.15 259.65 713.07 249.56 734.06 239.47 754.79 229.38 773.96 219.3 790.37 209.21 802.97 199.12 810.98 189.03 813.9 178.94 811.54 168.86 804.04 158.77 791.89 148.68 775.83 138.59 756.9 128.5 736.27 118.41 715.25 108.33 695.15 98.24 677.25 88.15 662.67 78.06 652.32 67.97 646.86 67.01 637.59 66.33 628.31 65.97 619.03 65.99 609.75 66.37 600.47 67.08 591.19 68.05 581.92 69.21 572.64 70.44 563.36 71.62 554.08 72.66 544.8 73.45 535.53 73.93 526.25 74.05 516.97 73.8 507.69 73.2 498.41 72.31 489.14 71.21 479.86 69.99 470.58 68.78 461.3 67.68 452.02 66.79 442.75 66.19 433.47 65.94 424.19 66.06 414.91 66.54 405.63 67.33 396.36 68.37 387.08 69.56 377.8 70.78 368.52 71.94 359.24 72.91 349.96 73.62 340.69 74 331.41 74.02 322.13 73.66 312.85 72.97 303.57 72.01 294.3 70.87 285.02 69.64 275.74 68.45 266.46 67.4 257.18 66.58 247.91 66.08 238.63 65.93 229.35 66.16 220.07 66.73 210.79 67.61 201.52 68.7 192.24 69.91 182.96 71.12 173.68 72.24 164.4 73.15 155.13 73.77 145.85 74.05 136.57 73.95 127.29 73.5 118.01 72.73 108.73 71.7 99.46 70.52 90.18 69.3 80.9 68.13 71.62 67.14 62.34 66.41 53.07" stroke-dasharray="0 6" transform="rotate(21.83783783783784, 400, 400)" opacity="0.34"></path><path d="M77.87 64.26Q87.54 66.48 97.2 69.55 106.87 73.3 116.54 77.5 126.21 81.9 135.88 86.25 145.55 90.29 155.22 93.78 164.88 96.53 174.55 98.35 184.22 99.16 193.89 98.9 203.56 97.58 213.23 95.29 222.9 92.16 232.56 88.37 242.23 84.15 251.9 79.74 261.57 75.41 271.24 71.4 280.91 67.96 290.57 65.28 300.24 63.53 309.91 62.81 319.58 63.16 329.25 64.55 338.92 66.92 348.59 70.11 358.25 73.94 367.92 78.19 377.59 82.6 387.26 86.92 396.93 90.89 406.6 94.27 416.27 96.88 425.93 98.55 435.6 99.19 445.27 98.76 454.94 97.28 464.61 94.85 474.28 91.6 483.95 87.73 493.61 83.46 503.28 79.04 512.95 74.74 522.62 70.81 532.29 67.48 541.96 64.94 551.63 63.35 561.29 62.79 570.96 63.31 580.63 64.87 590.3 67.37 599.97 70.68 609.64 74.59 619.3 78.88 628.97 83.29 638.64 87.57 648.31 91.47 657.98 94.74 667.65 97.21 677.32 98.72 686.98 99.19 696.65 98.59 704.41 109.54 713.41 120.48 722.89 131.43 732.04 142.37 740.07 153.32 746.31 164.26 750.21 175.21 751.45 186.15 749.92 197.1 745.75 208.04 739.29 218.99 731.11 229.93 721.89 240.88 712.42 251.82 703.52 262.77 695.93 273.71 690.32 284.65 687.15 295.6 686.7 306.54 689 317.49 693.87 328.43 700.88 339.38 709.44 350.32 718.81 361.27 728.2 372.21 736.8 383.16 743.88 394.1 748.84 405.05 751.25 415.99 750.91 426.94 747.84 437.88 742.32 448.83 734.8 459.77 725.93 470.72 716.47 481.66 707.22 492.6 698.98 503.55 692.45 514.49 688.19 525.44 686.55 536.38 687.68 547.33 691.49 558.27 697.64 569.22 705.62 580.16 714.73 591.11 724.21 602.05 733.25 613 741.07 623.94 747 634.89 750.55 645.83 751.4 656.78 749.48 667.72 744.97 678.67 738.23 689.61 729.86 700.55 720.56 711.5 711.12 722.44 702.36 733.39 695.01 744.33 689.71 755.28 686.92 766.22 686.86 777.17 676.56 793.85 656.17 781.53 646.52 766.63 636.88 748.92 627.24 729.45 617.6 709.37 607.95 689.86 598.31 672.05 588.67 657.01 579.02 645.62 569.38 638.54 559.74 636.2 550.1 638.72 540.45 645.97 530.81 657.51 521.17 672.68 511.53 690.56 501.88 710.12 492.24 730.2 482.6 749.62 472.95 767.24 463.31 782.02 453.67 793.09 444.03 799.81 434.38 801.77 424.74 798.86 415.1 791.25 405.45 779.4 395.81 763.99 386.17 745.93 376.53 726.29 366.88 706.22 357.24 686.9 347.6 669.47 337.95 654.95 328.31 644.2 318.67 637.85 309.03 636.27 299.38 639.56 289.74 647.53 280.1 659.69 270.46 675.35 260.81 693.57 251.17 713.29 241.53 733.35 231.88 752.56 222.24 769.79 212.6 784.04 202.96 794.46 193.31 800.44 183.67 801.63 174.03 797.96 164.38 789.65 154.74 777.17 145.1 761.28 135.46 742.9 125.81 723.11 116.17 703.08 106.53 683.99 96.88 666.95 87.24 652.98 77.6 642.89 76.87 633.85 76.5 624.81 76.5 615.77 76.9 606.72 77.64 597.68 78.67 588.64 79.89 579.6 81.21 570.56 82.52 561.52 83.69 552.48 84.63 543.44 85.26 534.4 85.53 525.36 85.41 516.31 84.92 507.27 84.09 498.23 82.99 489.19 81.73 480.15 80.4 471.11 79.12 462.07 78.01 453.03 77.14 443.99 76.61 434.95 76.45 425.9 76.68 416.86 77.28 407.82 78.19 398.78 79.35 389.74 80.64 380.7 81.97 371.66 83.21 362.62 84.26 353.58 85.03 344.54 85.46 335.49 85.51 326.45 85.17 317.41 84.48 308.37 83.49 299.33 82.28 290.29 80.97 281.25 79.66 272.21 78.46 263.17 77.48 254.13 76.8 245.08 76.47 236.04 76.54 227 76.98 217.96 77.77 208.92 78.83 199.88 80.07 190.84 81.4 181.8 82.69 172.76 83.84 163.72 84.74 154.67 85.32 145.63 85.54 136.59 85.36 127.55 84.82 118.51 83.95 109.47 82.82 100.43 81.54 91.39 80.21 82.35 78.95 73.31 77.87 64.26" stroke-dasharray="4 12" transform="rotate(24.56756756756757, 400, 400)" opacity="0.94"></path><path d="M89.87 76.89Q99.32 80.11 108.77 83.98 118.22 88.28 127.66 92.79 137.11 97.26 146.56 101.44 156.01 105.1 165.45 108.04 174.9 110.1 184.35 111.17 193.79 111.18 203.24 110.15 212.69 108.12 222.14 105.2 231.58 101.56 241.03 97.39 250.48 92.93 259.93 88.42 269.37 84.1 278.82 80.22 288.27 76.98 297.71 74.56 307.16 73.11 316.61 72.69 326.06 73.32 335.5 74.99 344.95 77.58 354.4 80.97 363.85 84.96 373.29 89.33 382.74 93.86 392.19 98.28 401.63 102.35 411.08 105.86 420.53 108.61 429.98 110.44 439.42 111.27 448.87 111.03 458.32 109.76 467.77 107.5 477.21 104.4 486.66 100.62 496.11 96.36 505.55 91.86 515 87.37 524.45 83.14 533.9 79.39 543.34 76.33 552.79 74.13 562.24 72.91 571.69 72.74 581.13 73.62 590.58 75.52 600.03 78.31 609.47 81.86 618.92 85.96 628.37 90.39 637.82 94.92 647.26 99.28 656.71 103.24 666.16 106.58 675.61 109.13 685.05 110.73 694.5 111.31 703.13 121.91 712.15 132.51 720.84 143.11 728.51 153.71 734.55 164.31 738.47 174.91 739.96 185.51 738.91 196.1 735.4 206.7 729.71 217.3 722.29 227.9 713.73 238.5 704.71 249.1 695.96 259.7 688.16 270.3 681.95 280.9 677.8 291.5 676.06 302.1 676.87 312.7 680.15 323.3 685.64 333.9 692.92 344.5 701.4 355.1 710.4 365.7 719.21 376.3 727.13 386.9 733.52 397.49 737.88 408.09 739.87 418.69 739.31 429.29 736.27 439.89 730.97 450.49 723.84 461.09 715.46 471.69 706.47 482.29 697.61 492.89 689.58 503.49 683.01 514.09 678.43 524.69 676.21 535.29 676.51 545.89 679.32 556.49 684.42 567.09 691.39 577.69 699.68 588.29 708.63 598.88 717.54 609.48 725.68 620.08 732.42 630.68 737.21 641.28 739.68 651.88 739.62 662.48 737.05 673.08 732.16 683.68 725.35 694.28 717.16 704.88 708.24 715.48 699.3 726.08 691.05 736.68 684.15 747.28 679.15 757.88 676.44 768.48 672.8 783.16 660.11 780.45 650.87 769.69 641.63 755.54 632.4 738.79 623.16 720.35 613.92 701.23 604.68 682.48 595.44 665.13 586.21 650.13 576.97 638.31 567.73 630.31 558.49 626.57 549.26 627.3 540.02 632.45 530.78 641.75 521.54 654.68 512.31 670.54 503.07 688.45 493.83 707.44 484.59 726.45 475.36 744.46 466.12 760.46 456.88 773.58 447.64 783.11 438.4 788.52 429.17 789.5 419.93 786.02 410.69 778.26 401.45 766.64 392.22 751.8 382.98 734.57 373.74 715.87 364.5 696.74 355.27 678.23 346.03 661.35 336.79 647.03 327.55 636.06 318.31 629.03 309.08 626.33 299.84 628.12 290.6 634.28 281.36 644.49 272.13 658.18 262.89 674.61 253.65 692.86 244.41 711.95 235.18 730.82 225.94 748.44 216.7 763.84 207.46 776.17 198.22 784.77 188.99 789.15 179.75 789.08 170.51 784.57 161.27 775.85 152.04 763.41 142.8 747.93 133.56 730.26 124.32 711.37 115.09 692.29 105.85 674.08 96.61 657.72 87.37 644.13 87.01 635.26 87.04 626.4 87.46 617.54 88.25 608.67 89.33 599.81 90.63 590.95 92.03 582.09 93.44 573.22 94.72 564.36 95.79 555.5 96.56 546.63 96.97 537.77 96.97 528.91 96.59 520.04 95.83 511.18 94.77 502.32 93.49 493.45 92.1 484.59 90.69 475.73 89.38 466.87 88.29 458 87.49 449.14 87.05 440.28 87 431.41 87.35 422.55 88.07 413.69 89.1 404.82 90.36 395.96 91.76 387.1 93.17 378.24 94.49 369.37 95.61 360.51 96.44 351.65 96.92 342.78 97 333.92 96.69 325.06 96.01 316.19 95 307.33 93.76 298.47 92.37 289.61 90.96 280.74 89.63 271.88 88.48 263.02 87.62 254.15 87.1 245.29 86.98 236.43 87.25 227.56 87.9 218.7 88.88 209.84 90.1 200.98 91.48 192.11 92.9 183.25 94.24 174.39 95.41 165.52 96.3 156.66 96.85 147.8 97.02 138.93 96.78 130.07 96.17 121.21 95.22 112.34 94.01 103.48 92.65 94.62 91.23 85.76 89.87 76.89" stroke-dasharray="12 4" transform="rotate(27.2972972972973, 400, 400)" opacity="0.79"></path><path d="M102.38 90.97Q111.61 94.98 120.85 99.4 130.09 104.01 139.32 108.56 148.56 112.83 157.79 116.6 167.03 119.67 176.26 121.9 185.5 123.15 194.74 123.38 203.97 122.57 213.21 120.76 222.44 118.04 231.68 114.56 240.92 110.49 250.15 106.03 259.39 101.42 268.62 96.89 277.86 92.67 287.09 88.97 296.33 86 305.57 83.89 314.8 82.75 324.04 82.65 333.27 83.59 342.51 85.51 351.75 88.33 360.98 91.9 370.22 96.03 379.45 100.52 388.69 105.14 397.92 109.64 407.16 113.81 416.4 117.42 425.63 120.3 434.87 122.29 444.1 123.31 453.34 123.28 462.57 122.22 471.81 120.18 481.05 117.26 490.28 113.61 499.52 109.42 508.75 104.91 517.99 100.29 527.23 95.82 536.46 91.71 545.7 88.18 554.93 85.4 564.17 83.52 573.4 82.63 582.64 82.78 591.88 83.97 601.11 86.12 610.35 89.14 619.58 92.86 628.82 97.1 638.05 101.64 647.29 106.25 656.53 110.7 665.76 114.75 675 118.2 684.23 120.87 693.47 122.64 702.04 132.82 710.23 143 717.45 153.19 723.15 163.37 726.91 173.56 728.46 183.74 727.67 193.93 724.62 204.11 719.52 214.3 712.75 224.48 704.82 234.67 696.3 244.85 687.84 255.04 680.06 265.22 673.52 275.41 668.73 285.59 666.03 295.78 665.63 305.96 667.54 316.14 671.64 326.33 677.62 336.51 685.03 346.7 693.32 356.88 701.89 367.07 710.1 377.25 717.33 387.44 723.06 397.62 726.86 407.81 728.45 417.99 727.71 428.18 724.69 438.36 719.62 448.55 712.88 458.73 704.96 468.91 696.45 479.1 687.98 489.28 680.18 499.47 673.62 509.65 668.8 519.84 666.06 530.02 665.61 540.21 667.49 550.39 671.55 560.58 677.5 570.76 684.89 580.95 693.18 591.13 701.75 601.32 709.96 611.5 717.22 621.69 722.98 631.87 726.82 642.05 728.44 652.24 727.74 662.42 724.76 672.61 719.73 682.79 713.01 692.98 705.1 703.16 696.6 713.35 688.12 723.53 680.31 733.72 673.72 743.9 668.86 754.09 661.41 765.89 647.85 756.95 638.97 743.34 630.1 727.37 621.22 709.85 612.34 691.67 603.47 673.76 594.59 657.03 585.71 642.35 576.84 630.46 567.96 621.96 559.08 617.29 550.21 616.68 541.33 620.18 532.45 627.59 523.58 638.55 514.7 652.48 505.82 668.69 496.95 686.35 488.07 704.54 479.19 722.35 470.32 738.87 461.44 753.25 452.57 764.76 443.69 772.82 434.81 777 425.94 777.1 417.06 773.11 408.18 765.24 399.31 753.89 390.43 739.64 381.55 723.2 372.68 705.44 363.8 687.24 354.92 669.53 346.05 653.23 337.17 639.17 328.29 628.05 319.42 620.45 310.54 616.76 301.67 617.16 292.79 621.63 283.91 629.95 275.04 641.7 266.16 656.26 257.28 672.9 248.41 690.77 239.53 708.96 230.65 726.54 221.78 742.61 212.9 756.35 204.02 767.07 195.15 774.2 186.27 777.4 177.39 776.5 168.52 771.54 159.64 762.78 150.77 750.66 141.89 735.8 133.01 718.96 124.14 701 115.26 682.84 106.38 665.39 97.51 649.57 97.59 640.84 98.08 632.11 98.93 623.38 100.08 614.65 101.44 605.93 102.93 597.2 104.41 588.47 105.79 579.74 106.97 571.01 107.85 562.29 108.29 544.83 107.54 527.37 106.53 518.65 105.26 509.92 103.83 501.19 102.33 492.46 100.88 483.73 99.59 475 98.03 457.55 97.59 440.09 98.07 431.36 98.91 422.64 100.06 413.91 101.42 405.18 102.9 396.45 104.39 387.72 105.77 379 106.95 370.27 108.17 352.81 108.22 335.36 107.55 326.63 106.55 317.9 105.29 309.17 103.85 300.44 102.35 291.72 100.9 282.99 99.61 274.26 98.56 265.53 97.71 248.07 98.05 230.62 98.89 221.89 100.03 213.16 101.39 204.43 102.87 195.71 104.36 186.98 105.75 178.25 106.93 169.52 107.82 160.79 108.29 143.34 107.57 125.88 106.57 117.15 105.31 108.43 103.88 99.7 102.38 90.97" stroke-dasharray="9 13" transform="rotate(30.027027027027028, 400, 400)" opacity="0.12"></path><path d="M115.25 106.38Q124.27 110.92 133.29 115.61 142.31 120.21 151.33 124.53 160.35 128.34 169.37 131.48 178.39 133.79 187.41 135.16 196.43 135.53 205.45 134.88 214.47 133.24 223.49 130.69 232.5 127.35 241.52 123.38 250.54 118.97 259.56 114.32 268.58 109.65 277.6 105.19 286.62 101.15 295.64 97.71 304.66 95.05 313.68 93.28 322.7 92.49 331.72 92.72 340.74 93.96 349.76 96.14 358.78 99.18 367.8 102.91 376.82 107.16 385.84 111.74 394.86 116.43 403.88 121 412.9 125.24 421.91 128.95 430.93 131.95 439.95 134.1 448.97 135.3 457.99 135.49 467.01 134.66 476.03 132.85 485.05 130.16 494.07 126.69 503.09 122.63 512.11 118.16 521.13 113.49 530.15 108.84 539.17 104.44 548.19 100.49 557.21 97.18 566.23 94.67 575.25 93.07 584.27 92.46 593.29 92.87 602.31 94.28 611.33 96.62 620.34 99.79 629.36 103.63 638.38 107.96 647.4 112.57 656.42 117.25 665.44 121.78 674.46 125.94 683.48 129.53 692.5 132.39 700.16 142.1 706.84 151.81 712.09 161.52 715.55 171.24 716.98 180.95 716.28 190.66 713.49 200.37 708.82 210.08 702.58 219.79 695.21 229.5 687.19 239.21 679.1 248.92 671.48 258.63 664.86 268.34 659.69 278.05 656.32 287.76 655 297.47 655.8 307.18 658.68 316.89 663.44 326.6 669.74 336.31 677.16 346.02 685.19 355.73 693.28 365.44 700.86 375.15 707.42 384.86 712.51 394.57 715.78 404.28 717 413.99 716.09 423.7 713.12 433.41 708.28 443.13 701.91 452.84 694.44 462.55 686.4 472.26 678.33 481.97 670.78 491.68 664.28 501.39 659.27 511.1 656.1 520.81 654.98 530.52 655.99 540.23 659.07 549.94 663.99 559.65 670.42 569.36 677.93 579.07 685.99 588.78 694.05 598.49 701.55 608.2 707.99 617.91 712.91 627.62 715.99 637.33 717.01 647.04 715.89 656.75 712.72 666.46 707.72 676.17 701.22 685.88 693.68 695.59 685.6 705.3 677.56 715.02 670.1 724.73 663.72 734.44 653.11 743.73 638.78 730.05 630.23 714.71 621.67 698.01 613.11 680.74 604.55 663.72 595.99 647.75 587.44 633.59 578.88 621.92 570.32 613.27 553.2 608.44 536.09 614.7 527.53 623.98 518.97 636.19 510.41 650.75 501.86 666.99 493.3 684.12 484.74 701.35 476.18 717.84 467.62 732.83 459.06 745.6 450.51 755.56 433.39 763.39 416.27 760.15 407.72 752.22 399.16 741.15 390.6 727.48 382.04 711.84 373.48 694.98 364.93 677.69 356.37 660.8 347.81 645.1 339.25 631.33 330.69 620.16 322.14 612.09 313.58 607.53 305.02 606.68 296.46 609.58 287.9 616.1 279.35 625.93 270.79 638.6 262.23 653.52 253.67 669.97 245.11 687.18 236.56 704.33 228 720.62 219.44 735.27 210.88 747.58 202.32 756.98 193.77 763.02 185.21 765.42 176.65 764.05 168.09 758.99 159.53 750.48 150.97 738.91 142.42 724.84 133.86 708.93 125.3 691.94 116.74 674.66 108.18 657.92 109.84 640.69 112.37 623.45 115.43 606.22 118.19 588.98 119.57 571.74 119.79 554.51 118.1 537.27 115.55 520.04 112.49 502.8 109.75 485.57 108.4 468.33 108.22 451.1 109.95 433.86 112.51 416.62 115.57 399.39 118.3 382.15 119.61 364.92 119.75 347.68 117.99 330.45 115.4 313.21 112.35 295.98 109.64 278.74 108.37 261.5 108.27 244.27 110.05 227.03 112.66 209.8 115.71 192.56 118.4 175.33 119.64 158.09 119.7 140.85 117.88 123.62 115.25 106.38" stroke-dasharray="6 7" transform="rotate(32.75675675675676, 400, 400)" opacity="1.00"></path><path d="M128.29 122.9Q145.86 132.26 163.43 140.37 181 145.81 198.58 147.65 216.15 145.57 233.72 139.92 251.29 131.69 268.86 122.3 286.43 113.38 304 106.47 321.57 102.76 339.14 102.91 356.71 106.88 374.28 113.99 391.85 123.01 409.43 132.36 427 140.45 444.57 145.85 462.14 147.65 479.71 145.52 497.28 139.84 514.85 131.58 532.42 122.19 549.99 113.28 567.56 106.4 585.13 102.74 602.7 102.94 620.27 106.95 637.85 114.09 655.42 123.12 672.99 132.47 690.56 140.53 701.33 158.91 705.52 177.29 702.07 195.67 691.85 214.05 677.41 232.43 662.37 250.81 650.49 269.19 644.73 287.57 646.55 305.95 655.49 324.33 669.3 342.72 684.54 361.1 697.39 379.48 704.64 397.86 704.47 416.24 696.93 434.62 683.91 453 668.65 471.38 654.98 489.76 646.32 508.14 644.83 526.52 650.89 544.9 662.97 563.28 678.07 581.66 692.39 600.04 702.37 618.43 705.49 636.81 700.99 655.19 689.98 673.57 675.23 691.95 660.41 710.33 649.25 728.71 632.69 700.84 616.14 668.5 599.59 637.29 583.03 612.6 566.48 598.72 549.93 598.05 533.37 610.7 516.82 634.49 500.27 665.29 483.71 697.77 467.16 726.31 450.61 745.96 434.05 753.33 417.5 747.12 400.95 728.43 384.39 700.48 367.84 668.12 351.29 636.95 334.73 612.37 318.18 598.63 301.63 598.12 285.07 610.92 268.52 634.82 251.97 665.67 235.41 698.14 218.86 726.6 202.31 746.13 185.75 753.33 169.2 746.97 152.65 728.14 136.09 700.11 119.54 667.73 121.91 650.71 125.04 633.68 128.17 616.66 130.5 599.63 131.46 582.6 130.79 565.58 128.68 548.55 125.65 531.52 122.45 514.5 119.89 497.47 118.6 480.45 118.92 463.42 120.75 446.39 123.65 429.37 126.88 412.34 129.64 395.31 131.24 378.29 131.28 361.26 129.74 344.24 127.02 327.21 123.79 310.18 120.86 293.16 118.97 276.13 118.58 259.1 119.8 242.08 122.32 225.05 125.51 208.03 128.57 191 130.73 173.97 131.46 156.95 130.57 139.92 128.29 122.9" stroke-dasharray="2 9" transform="rotate(35.48648648648649, 400, 400)" opacity="0.65"></path><path d="M141.25 140.14Q158.3 148.98 175.35 155.74 192.39 159.35 209.44 159.22 226.49 155.38 243.53 148.45 260.58 139.52 277.63 130.04 294.67 121.5 311.72 115.28 328.76 112.37 345.81 113.23 362.86 117.74 379.9 125.15 396.95 134.31 414 143.73 431.04 151.91 448.09 157.56 465.13 159.75 482.18 158.15 499.23 153.01 516.27 145.16 533.32 135.83 550.37 126.54 567.41 118.75 584.46 113.72 601.51 112.25 618.55 114.57 635.6 120.32 652.64 128.57 669.69 138.01 686.74 147.12 693.27 164.4 693.05 181.69 686.12 198.97 674.07 216.25 659.7 233.53 646.33 250.81 637.03 268.1 633.96 285.38 637.82 302.66 647.73 319.94 661.4 337.22 675.66 354.51 687.23 371.79 693.44 389.07 692.84 406.35 685.59 423.63 673.34 440.92 658.94 458.2 645.71 475.48 636.7 492.76 633.99 510.05 638.21 527.33 648.39 544.61 662.17 561.89 676.37 579.17 687.71 596.46 693.58 613.74 692.62 631.02 685.04 648.3 672.61 665.58 658.19 682.87 645.1 700.15 629.06 670.53 613.01 639.87 596.96 613.06 580.92 594.39 564.87 586.85 548.83 591.63 532.78 607.97 516.73 633.26 500.69 663.47 484.64 693.76 468.6 719.29 452.55 735.99 436.5 741.19 420.46 734.05 404.41 715.71 388.36 689.12 372.32 658.51 356.27 628.77 340.23 604.67 324.18 590.04 308.13 587.23 292.09 596.69 276.04 616.9 260 644.63 243.95 675.46 227.9 704.46 211.86 726.99 195.81 739.46 179.76 739.86 163.72 728.15 147.67 706.18 131.63 677.48 134.65 660.69 137.99 643.89 140.86 627.1 142.61 610.31 142.84 593.52 141.48 576.73 138.86 559.94 135.57 543.14 132.38 526.35 130.03 509.56 129.06 492.77 129.68 475.98 131.77 459.19 134.83 442.39 138.16 425.6 140.99 408.81 142.67 392.02 142.8 375.23 141.37 358.44 138.69 341.64 135.39 324.85 132.23 308.06 129.94 291.27 129.05 274.48 129.76 257.69 131.91 240.89 135 224.1 138.33 207.31 141.11 190.52 142.71 173.73 142.77 156.94 141.25 140.14" stroke-dasharray="6 13" transform="rotate(38.21621621621622, 400, 400)" opacity="0.59"></path><path d="M153.87 157.68Q170.32 165.35 186.78 170.32 203.23 171.87 219.68 169.76 236.13 164.31 252.59 156.31 269.04 146.95 285.49 137.59 301.95 129.62 318.4 124.19 334.85 122.12 351.3 123.7 367.76 128.71 384.21 136.4 400.66 145.64 417.11 155.09 433.57 163.35 450.02 169.2 466.47 171.79 482.92 170.74 499.38 166.2 515.83 158.84 532.28 149.74 548.74 140.24 565.19 131.72 581.64 125.45 598.09 122.35 614.55 122.87 631 126.93 647.45 133.94 663.9 142.86 680.36 152.4 682.48 168.56 678.34 184.72 668.81 200.88 655.93 217.04 642.42 233.2 631.16 249.36 624.54 265.52 623.96 281.68 629.55 297.84 640.12 314 653.43 330.16 666.64 346.32 676.96 362.48 682.18 378.64 681.21 394.8 674.24 410.96 662.76 427.12 649.21 443.28 636.46 459.44 627.22 475.6 623.46 491.76 625.97 507.92 634.22 524.08 646.47 540.24 660.09 556.4 672.21 572.56 680.25 588.72 682.5 604.88 678.48 621.04 669.05 637.2 656.2 653.36 642.68 669.52 627.11 640.36 611.54 613.05 595.97 591.61 580.4 579.19 564.82 577.61 549.25 587.11 533.68 606.28 518.11 632.32 502.54 661.39 486.97 689.24 471.4 711.75 455.83 725.64 440.26 728.85 424.68 720.92 409.11 703.01 393.54 677.75 377.97 648.86 362.4 620.57 346.83 597.05 331.26 581.74 315.69 576.9 300.11 583.25 284.54 599.83 268.97 624.23 253.4 652.85 237.83 681.5 222.26 705.95 206.69 722.63 191.12 729.08 175.55 724.35 159.97 709.13 144.4 685.68 147.8 669.18 151.03 652.68 153.4 636.18 154.41 619.68 153.84 603.18 151.82 586.68 148.78 570.18 145.35 553.68 142.28 537.18 140.2 520.68 139.57 504.18 140.52 487.68 142.84 471.18 146.04 454.68 149.45 438.18 152.33 421.68 154.09 405.18 154.33 388.68 153.02 372.18 150.42 355.68 147.1 339.18 143.76 322.68 141.1 306.18 139.7 289.68 139.84 273.18 141.51 256.68 144.34 240.18 147.73 223.68 150.97 207.18 153.36 190.68 154.4 174.18 153.87 157.68" stroke-dasharray="10 0" transform="rotate(40.94594594594595, 400, 400)" opacity="0.56"></path><path d="M165.89 174.98Q181.68 180.94 197.46 183.8 213.25 183.2 229.03 179.2 244.82 172.35 260.6 163.57 276.39 154.04 292.17 145.04 307.96 137.78 323.74 133.25 339.53 132.04 355.31 134.33 371.1 139.8 386.88 147.72 402.67 157.02 418.46 166.45 434.24 174.75 450.03 180.79 465.81 183.76 481.6 183.27 497.38 179.38 513.17 172.61 528.95 163.87 544.74 154.34 560.52 145.31 576.31 137.98 592.09 133.34 607.88 132.02 623.66 134.2 639.45 139.58 655.24 147.43 671.02 156.71 669.01 171.76 661.75 186.81 650.63 201.86 637.84 216.91 625.86 231.96 617.01 247.01 613.03 262.06 614.69 277.11 621.66 292.15 632.59 307.2 645.35 322.25 657.46 337.3 666.56 352.35 670.87 367.4 669.57 382.45 662.89 397.5 652.15 412.55 639.44 427.6 627.22 442.65 617.87 457.7 613.23 472.75 614.18 487.8 620.54 502.85 631.09 517.89 643.75 532.94 656.07 547.99 665.66 563.04 670.63 578.09 670.04 593.14 663.98 608.19 653.64 623.24 641.04 638.29 625.94 611.53 610.83 588.86 595.73 573.35 580.63 567.07 565.52 570.87 550.42 584.25 535.32 605.39 520.21 631.46 505.11 658.94 490.01 684.15 474.9 703.68 459.8 714.92 444.7 716.34 429.59 707.76 414.49 690.33 399.39 666.39 384.29 639.18 369.18 612.34 354.08 589.49 338.98 573.71 323.87 567.12 308.77 570.6 293.67 583.68 278.56 604.62 263.46 630.58 248.36 658.08 233.25 683.41 218.15 703.17 203.05 714.7 187.94 716.45 172.84 708.18 157.74 691 161.16 674.88 163.98 658.75 165.62 642.62 165.79 626.5 164.43 610.37 161.83 594.25 158.47 578.12 155.03 562 152.16 545.87 150.43 529.75 150.17 513.62 151.43 497.49 153.98 481.37 157.3 465.24 160.76 449.12 163.68 432.99 165.5 416.87 165.85 400.74 164.68 384.61 162.2 368.49 158.91 352.36 155.44 336.24 152.46 320.11 150.57 303.99 150.12 287.86 151.2 271.74 153.61 255.61 156.87 239.48 160.35 223.36 163.37 207.23 165.34 191.11 165.89 174.98" stroke-dasharray="13 8" transform="rotate(43.67567567567568, 400, 400)" opacity="0.90"></path><path d="M177.11 191.52Q192.16 195.34 207.21 195.93 222.26 193.22 237.3 187.53 252.35 179.57 267.4 170.31 282.45 160.89 297.5 152.46 312.54 146.07 327.59 142.48 342.64 142.15 357.69 145.12 372.74 151.01 387.79 159.12 402.83 168.43 417.88 177.81 432.93 186.12 447.98 192.32 463.03 195.65 478.07 195.72 493.12 192.51 508.17 186.41 523.22 178.17 538.27 168.81 553.32 159.47 568.36 151.3 583.41 145.3 598.46 142.21 613.51 142.41 628.56 145.87 643.6 152.16 658.65 160.53 653.19 174.51 643.78 188.49 632.1 202.47 620.23 216.45 610.26 230.43 603.98 244.41 602.5 258.39 606.08 272.37 614.08 286.35 625.09 300.33 637.15 314.31 648.11 328.3 656.03 342.28 659.51 356.26 657.92 370.24 651.55 384.22 641.53 398.2 629.63 412.18 617.98 426.16 608.64 440.14 603.27 454.12 602.83 468.1 607.38 482.08 616.14 496.07 627.53 510.05 639.53 524.03 650.02 538.01 657.13 551.99 659.6 565.97 656.99 579.95 649.76 593.93 639.2 607.91 624.58 585.12 609.96 567.96 595.34 558.53 580.72 558 566.1 566.42 551.48 582.77 536.87 605.04 522.25 630.49 507.63 656.01 493.01 678.45 478.39 695.07 463.77 703.83 449.15 703.65 434.54 694.55 419.92 677.65 405.3 655.03 390.68 629.46 376.06 604.07 361.44 581.99 346.82 565.93 332.21 557.84 317.59 558.74 302.97 568.5 288.35 585.94 273.73 608.9 259.11 634.57 244.49 659.81 229.88 681.51 215.26 697.01 200.64 704.41 186.02 702.8 171.4 692.37 174.5 676.72 176.62 661.07 177.39 645.42 176.66 629.77 174.58 614.12 171.5 598.46 167.98 582.81 164.63 567.16 162.07 551.51 160.73 535.86 160.86 520.2 162.44 504.55 165.18 488.9 168.6 473.25 172.09 457.6 175.03 441.95 176.9 426.29 177.36 410.64 176.34 394.99 174.02 379.34 170.8 363.69 167.26 348.03 164.03 332.38 161.68 316.73 160.63 301.08 161.07 285.43 162.91 269.78 165.84 254.12 169.32 238.47 172.75 222.82 175.51 207.17 177.11 191.52" stroke-dasharray="3 4" transform="rotate(46.40540540540541, 400, 400)" opacity="0.44"></path><path d="M187.41 206.77Q201.66 208.22 215.92 206.52 230.17 201.87 244.42 194.78 258.67 186.05 272.93 176.64 287.18 167.6 301.43 159.95 315.68 154.52 329.94 151.94 344.19 152.48 358.44 156.09 372.69 162.36 386.95 170.6 401.2 179.88 415.45 189.18 429.7 197.45 443.96 203.78 458.21 207.45 472.46 208.07 486.72 205.56 500.97 200.2 515.22 192.59 529.47 183.58 543.73 174.17 557.98 165.4 572.23 158.26 586.48 153.55 600.74 151.78 614.99 153.15 629.24 157.52 643.49 164.39 635.52 177.37 625.04 190.35 613.74 203.33 603.46 216.31 595.84 229.29 592.12 242.27 592.9 255.25 598.05 268.23 606.73 281.21 617.56 294.19 628.79 307.17 638.59 320.15 645.39 333.13 648.1 346.11 646.27 359.09 640.2 372.07 630.88 385.05 619.79 398.03 608.74 411.01 599.51 423.99 593.58 436.97 591.91 449.95 594.77 462.93 601.71 475.91 611.59 488.89 622.83 501.87 633.61 514.85 642.19 527.83 647.2 540.81 647.81 553.79 643.94 566.77 636.2 579.75 622.11 562.03 608.01 550.78 593.91 547.24 579.82 551.8 565.72 563.96 551.62 582.37 537.53 604.97 523.43 629.24 509.33 652.48 495.24 672.1 481.14 685.92 467.04 692.39 452.95 690.8 438.85 681.31 424.75 665 410.66 643.67 396.56 619.7 382.46 595.77 368.37 574.53 354.27 558.36 340.17 549.06 326.08 547.66 311.98 554.32 297.88 568.3 283.79 588.04 269.69 611.34 255.59 635.6 241.5 658.13 227.4 676.4 213.3 688.39 199.21 692.76 185.11 689.03 187.55 673.96 188.77 658.89 188.58 643.81 187 628.74 184.29 613.67 180.89 598.6 177.34 583.53 174.22 568.46 172.04 553.39 171.13 538.32 171.66 523.25 173.53 508.18 176.44 493.11 179.93 478.04 183.43 462.97 186.37 447.9 188.29 432.83 188.86 417.76 188.01 402.69 185.86 387.61 182.77 372.54 179.23 357.47 175.81 342.4 173.07 327.33 171.44 312.26 171.2 297.19 172.37 282.12 174.78 267.05 178.02 251.98 181.59 236.91 184.89 221.84 187.41 206.77" stroke-dasharray="2 3" transform="rotate(49.13513513513514, 400, 400)" opacity="0.10"></path><path d="M196.77 220.29Q210.19 219.31 223.6 215.48 237.02 209.19 250.43 201.06 263.85 191.92 277.26 182.69 290.68 174.3 304.1 167.58 317.51 163.22 330.93 161.66 344.34 163.05 357.76 167.25 371.17 173.84 384.59 182.16 398 191.37 411.42 200.54 424.83 208.75 438.25 215.17 451.66 219.16 465.08 220.32 478.5 218.52 491.91 213.95 505.33 207.08 518.74 198.58 532.16 189.32 545.57 180.23 558.99 172.22 572.4 166.1 585.82 162.49 599.23 161.75 614.66 172.44 606.16 193 596.06 205.07 587.84 217.13 582.71 229.2 581.42 241.26 584.14 253.33 590.49 265.39 599.53 277.46 609.96 289.52 620.24 301.59 628.89 313.65 634.63 325.72 636.64 337.78 634.62 349.85 628.86 361.91 620.2 373.98 609.91 386.04 599.49 398.11 590.46 410.17 584.12 422.24 581.41 434.3 582.73 446.37 587.87 458.43 596.09 470.5 606.2 482.56 616.71 494.63 626.1 506.69 632.99 518.76 636.39 530.82 626.77 542.91 604.24 537.56 590.71 539.38 577.19 548.2 563.67 563.14 550.14 582.7 536.62 604.91 523.1 627.52 509.57 648.27 496.05 665.07 482.53 676.22 469 680.61 455.48 677.79 441.96 668.05 428.43 652.36 414.91 632.31 401.39 609.91 387.86 587.42 374.34 567.1 360.82 550.99 347.29 540.73 333.77 537.34 320.25 541.16 306.72 551.8 293.2 568.21 279.68 588.71 266.15 611.26 252.63 633.58 239.11 653.43 225.59 668.81 206.06 672.16 200.27 651.79 199.12 637.4 196.78 623.02 193.61 608.64 190.05 594.25 186.63 579.87 183.85 565.49 182.1 551.1 181.66 536.72 182.58 522.34 184.72 507.95 187.78 493.57 191.31 479.19 194.79 464.8 197.72 450.42 199.67 436.04 200.35 421.66 199.67 407.27 197.73 392.89 194.8 378.51 191.32 364.12 187.79 349.74 184.73 335.36 182.58 320.97 181.66 306.59 182.1 292.21 183.84 277.82 186.62 263.44 190.03 249.06 193.59 234.67 196.77 220.29" stroke-dasharray="13 3" transform="rotate(51.86486486486486, 400, 400)" opacity="0.69"></path><path d="M205.29 231.75Q217.85 228.48 230.41 222.81 242.96 215.26 255.52 206.52 268.08 197.36 280.63 188.62 293.19 181.09 305.75 175.46 318.3 172.22 330.86 171.67 343.42 173.86 355.97 178.6 368.53 185.46 381.09 193.8 393.64 202.89 406.2 211.9 418.76 220.01 431.31 226.5 443.87 230.76 456.43 232.43 468.98 231.35 481.54 227.61 494.1 221.55 506.65 213.73 519.21 204.85 531.77 195.71 544.32 187.13 556.88 179.9 569.44 174.67 581.99 171.91 595.97 178.83 587.77 197.04 579.48 208.29 573.62 219.53 570.95 230.78 571.82 242.03 576.13 253.27 583.3 264.52 592.39 275.76 602.22 287.01 611.49 298.25 619 309.5 623.75 320.75 625.13 331.99 622.96 343.24 617.51 354.48 609.51 365.73 600 376.97 590.22 388.22 581.47 399.47 574.88 410.71 571.31 421.96 571.25 433.2 574.69 444.45 581.18 455.7 589.88 466.94 599.64 478.19 609.18 489.43 617.26 500.68 622.81 511.92 618.05 525.69 598.09 528.3 585.2 534.7 572.3 546.82 559.41 563.56 546.52 583.43 533.63 604.6 520.74 625.18 507.85 643.31 494.96 657.33 482.07 665.99 469.18 668.51 456.29 664.64 443.4 654.76 430.51 639.74 417.62 620.94 404.73 600.08 391.83 579.02 378.94 559.68 366.05 543.8 353.16 532.82 340.27 527.74 327.38 529.01 314.49 536.51 301.6 549.58 288.71 567.02 275.82 587.26 262.93 608.47 250.04 628.74 237.15 646.22 218.04 656.34 210.98 639.73 208.97 626.13 206.05 612.53 202.59 598.93 199.05 585.33 195.91 571.73 193.55 558.13 192.31 544.53 192.33 530.93 193.62 517.33 196.01 503.74 199.18 490.14 202.72 476.54 206.16 462.94 209.06 449.34 211.04 435.74 211.82 422.14 211.32 408.54 209.6 394.94 206.88 381.34 203.52 367.74 199.96 354.14 196.67 340.54 194.08 326.94 192.52 313.35 192.2 299.75 193.17 286.15 195.29 272.55 198.29 258.95 201.78 245.35 205.29 231.75" stroke-dasharray="7 7" transform="rotate(54.5945945945946, 400, 400)" opacity="0.88"></path><path d="M213.19 240.95Q224.88 235.71 236.58 228.62 248.28 220.28 259.97 211.35 271.67 202.55 283.37 194.59 295.06 188.12 306.76 183.66 318.46 181.57 330.16 182.01 341.85 184.95 353.55 190.16 365.25 197.2 376.94 205.53 388.64 214.45 400.34 223.26 412.03 231.24 423.73 237.75 435.43 242.26 447.12 244.41 458.82 244.02 470.52 241.13 482.22 235.96 493.91 228.95 505.61 220.64 517.31 211.72 529 202.9 540.7 194.9 552.4 188.36 564.09 183.8 577.13 187.03 570.45 202.98 564.36 213.51 560.92 224.03 560.54 234.55 563.25 245.08 568.73 255.6 576.36 266.12 585.23 276.65 594.3 287.17 602.52 297.69 608.93 308.22 612.76 318.74 613.59 329.26 611.3 339.79 606.17 350.31 598.79 360.83 590.03 371.36 580.92 381.88 572.52 392.4 565.81 402.93 561.59 413.45 560.33 423.97 562.19 434.5 566.96 445.02 574.07 455.54 582.69 466.07 591.82 476.59 600.38 487.11 607.38 497.64 606.73 513.05 589.28 522.78 577.08 532.8 564.88 547.19 552.68 564.8 540.48 584.2 528.28 603.82 516.08 622.08 503.88 637.52 491.69 648.87 479.49 655.23 467.29 656.09 455.09 651.36 442.89 641.45 430.69 627.13 418.49 609.58 406.29 590.21 394.1 570.57 381.9 552.26 369.7 536.76 357.5 525.31 345.3 518.83 333.1 517.86 320.9 522.47 308.7 532.29 296.51 546.52 284.31 564.02 272.11 583.37 259.91 603.02 247.71 621.37 229.09 636.35 220.88 623.02 218.17 610.29 214.86 597.55 211.33 584.82 208 572.08 205.25 559.35 203.4 546.61 202.68 533.87 203.17 521.14 204.8 508.4 207.4 495.67 210.65 482.93 214.17 470.2 217.56 457.46 220.41 444.72 222.39 431.99 223.28 419.25 222.96 406.52 221.48 393.78 219 381.05 215.82 368.31 212.31 355.57 208.88 342.84 205.93 330.1 203.81 317.37 202.76 304.63 202.91 291.9 204.24 279.16 206.6 266.43 209.7 253.69 213.19 240.95" stroke-dasharray="7 14" transform="rotate(57.32432432432432, 400, 400)" opacity="0.83"></path><path d="M220.75 247.88Q231.61 241.12 242.46 233.13 253.32 224.48 264.17 215.8 275.03 207.71 285.88 200.78 296.74 195.51 307.6 192.28 318.45 191.32 329.31 192.7 340.16 196.32 351.02 201.91 361.87 209.09 372.73 217.33 383.58 226.05 394.44 234.63 405.29 242.44 416.15 248.93 427.01 253.64 437.86 256.22 448.72 256.51 459.57 254.46 470.43 250.24 481.28 244.13 492.14 236.59 502.99 228.15 513.85 219.4 524.7 210.99 535.56 203.51 546.42 197.49 554.93 209.23 549.81 231 551.4 240.9 555.55 250.79 561.82 260.68 569.56 270.57 577.96 280.46 586.17 290.35 593.32 300.24 598.67 310.13 601.67 320.02 602 329.91 599.64 339.8 594.82 349.69 588.05 359.58 580.03 369.47 571.59 379.36 563.61 389.25 556.91 399.15 552.19 409.04 549.95 418.93 550.4 428.82 553.51 438.71 558.96 448.6 566.17 458.49 574.4 468.38 582.8 478.27 590.49 488.16 592.97 505.01 577.81 520.59 566.35 533.17 554.9 548.81 543.45 566.4 531.99 584.67 520.54 602.33 509.08 618.1 497.63 630.85 486.18 639.68 474.72 643.96 463.27 643.37 451.81 637.96 440.36 628.12 428.9 614.55 417.45 598.22 406 580.3 394.54 562.07 383.09 544.84 371.63 529.83 360.18 518.13 348.73 510.57 337.27 507.69 325.82 509.7 314.36 516.45 302.91 527.46 291.46 541.95 280 558.87 268.55 577.01 257.09 595.08 239.08 612.96 229.97 602.31 226.8 590.49 223.34 578.68 219.94 566.87 216.97 555.05 214.73 543.24 213.45 531.42 213.26 519.61 214.18 507.79 216.13 495.98 218.89 484.17 222.18 472.35 225.66 460.54 228.96 448.72 231.75 436.91 233.74 425.1 234.71 413.28 234.58 401.47 233.34 389.65 231.13 377.84 228.19 366.03 224.81 354.21 221.34 342.4 218.15 330.58 215.57 318.77 213.86 306.95 213.2 295.14 213.66 283.33 215.2 271.51 217.64 259.7 220.75 247.88" stroke-dasharray="6 8" transform="rotate(60.054054054054056, 400, 400)" opacity="0.60"></path><path d="M228.36 252.7Q238.41 244.98 248.46 236.63 258.5 228.18 268.55 220.16 278.6 213.07 288.64 207.36 298.69 203.39 308.74 201.41 318.79 201.54 328.83 203.78 338.88 207.98 348.93 213.88 358.98 221.11 369.02 229.22 379.07 237.69 389.12 245.99 399.16 253.6 409.21 260.03 419.26 264.89 429.31 267.87 439.35 268.78 449.4 267.57 459.45 264.3 469.49 259.19 479.54 252.56 489.59 244.82 499.64 236.46 509.68 228.02 519.73 220.01 529.78 212.94 540.69 220.65 540.22 240.66 543.4 250 548.56 259.33 555.22 268.67 562.77 278 570.53 287.33 577.78 296.67 583.86 306 588.22 315.34 590.46 324.67 590.37 334.01 587.97 343.34 583.47 352.67 577.29 362.01 569.98 371.34 562.22 380.68 554.71 390.01 548.14 399.34 543.1 408.68 540.07 418.01 539.31 427.35 540.9 436.68 544.69 446.01 550.33 455.35 557.31 464.68 564.99 474.02 572.67 483.35 579.65 492.68 585.3 502.02 574.63 509.84 563.96 521.13 553.29 535.19 542.62 551.12 531.95 567.92 521.28 584.54 510.61 599.93 499.95 613.12 489.28 623.28 478.61 629.77 467.94 632.19 457.27 630.38 446.6 624.45 435.93 614.79 425.27 601.99 414.6 586.86 403.93 570.35 393.26 553.51 382.59 537.39 371.92 523.01 361.25 511.27 350.59 502.91 339.92 498.46 329.25 498.2 318.58 502.13 307.91 510.03 297.24 521.38 286.57 535.48 275.91 551.44 265.24 568.25 248 587.1 238.36 578.49 234.99 567.63 231.62 556.77 228.56 545.91 226.09 535.05 224.43 524.19 223.73 513.33 224.06 502.47 225.39 491.61 227.6 480.75 230.48 469.89 233.78 459.03 237.18 448.17 240.39 437.31 243.1 426.45 245.07 415.59 246.13 404.74 246.16 393.88 245.18 383.02 243.27 372.16 240.6 361.3 237.42 350.44 234.02 339.58 230.71 328.72 227.79 317.86 225.52 307 224.13 296.14 223.72 285.28 224.34 274.42 225.94 263.56 228.36 252.7" stroke-dasharray="10 9" transform="rotate(62.78378378378378, 400, 400)" opacity="0.22"></path><path d="M236.41 255.75Q245.69 247.68 254.98 239.53 264.26 231.73 273.54 224.71 282.82 218.86 292.1 214.49 301.39 211.86 310.67 211.1 319.95 212.25 329.23 215.25 338.51 219.94 347.8 226.06 357.08 233.28 366.36 241.19 375.64 249.36 384.92 257.35 394.21 264.72 403.49 271.06 412.77 276.02 422.05 279.34 431.33 280.83 440.62 280.4 449.9 278.09 459.18 274.02 468.46 268.42 477.74 261.58 487.03 253.88 496.31 245.76 505.59 237.64 514.87 229.99 528.29 234.53 532.01 253.02 536.35 261.86 542.1 270.69 548.79 279.53 555.89 288.36 562.85 297.2 569.1 306.03 574.14 314.87 577.59 323.7 579.15 332.54 578.71 341.37 576.31 350.21 572.13 359.04 566.5 367.88 559.88 376.71 552.79 385.54 545.8 394.38 539.46 403.21 534.28 412.05 530.66 420.88 528.9 429.72 529.14 438.55 531.36 447.39 535.38 456.22 540.89 465.06 547.43 473.89 554.5 482.73 561.53 491.56 567.96 500.4 558.1 510.86 548.24 523.69 538.38 538.18 528.52 553.55 518.67 568.93 508.81 583.5 498.95 596.44 489.09 607.06 479.23 614.77 469.38 619.15 459.52 619.94 449.66 617.13 439.8 610.85 429.94 601.45 420.09 589.44 410.23 575.49 400.37 560.37 390.51 544.89 380.65 529.91 370.8 516.26 360.94 504.67 351.08 495.79 341.22 490.1 331.37 487.92 321.51 489.36 311.65 494.35 301.79 502.61 291.93 513.69 282.08 526.98 272.22 541.75 249.43 551.33 239.89 532.87 237.32 522.98 235.45 513.08 234.41 503.18 234.3 493.28 235.12 483.39 236.8 473.49 239.22 463.59 242.18 453.69 245.44 443.8 248.74 433.9 251.83 424 254.45 414.11 256.4 404.21 257.52 394.31 257.72 384.41 256.99 374.52 255.39 364.62 253.03 354.72 250.12 344.82 246.88 334.93 243.57 325.03 240.45 315.13 237.77 305.24 235.75 295.34 234.54 285.44 234.25 275.54 234.89 265.65 236.41 255.75" stroke-dasharray="4 12" transform="rotate(65.51351351351352, 400, 400)" opacity="0.21"></path><path d="M245.28 257.53Q253.84 249.73 262.41 242.27 270.97 235.51 279.53 229.77 288.1 225.31 296.66 222.35 313.79 222.27 330.91 227.15 339.48 232.22 348.04 238.46 356.6 245.57 365.17 253.23 373.73 261.07 382.3 268.71 390.86 275.8 399.42 282 407.99 287.02 416.55 290.61 433.68 292.08 450.8 288.53 459.37 284.02 467.93 278.23 476.49 271.43 485.06 263.95 493.62 256.15 502.18 248.38 517.85 250.71 524.99 267.9 530.02 276.27 535.95 284.64 542.35 293.01 548.81 301.38 554.86 309.75 560.1 318.12 565.95 334.86 567.02 351.6 564.65 359.97 560.78 368.34 555.7 376.71 549.74 385.08 543.32 393.45 536.87 401.82 530.85 410.19 525.66 418.56 519.95 435.3 519.05 452.04 521.5 460.41 525.43 468.78 530.57 477.15 536.56 485.52 542.99 493.89 549.42 502.26 540.38 514.17 531.34 527.45 522.31 541.46 513.27 555.55 504.23 569.04 495.19 581.3 486.15 591.74 477.11 599.88 468.07 605.33 459.03 607.82 449.99 607.25 440.95 603.63 431.91 597.15 422.88 588.1 413.84 576.92 404.8 564.13 395.76 550.34 386.72 536.21 377.68 522.39 368.64 509.55 359.6 498.29 350.56 489.15 341.52 482.56 332.49 478.83 323.45 478.13 314.41 480.51 305.37 485.84 296.33 493.88 287.29 504.24 278.25 516.43 256.98 524.78 248.31 508.16 246.36 499.21 245.15 490.26 244.75 481.31 245.19 472.35 246.45 463.4 248.42 454.45 250.99 445.5 253.97 436.55 257.15 427.6 260.33 418.65 263.28 409.7 265.79 400.75 267.7 391.8 268.88 382.85 269.24 373.89 268.75 364.94 267.46 355.99 265.45 347.04 262.86 338.09 259.87 329.14 256.68 320.19 253.51 311.24 250.58 302.29 248.09 293.34 246.21 284.38 245.08 275.43 244.76 266.48 245.28 257.53" stroke-dasharray="9 5" transform="rotate(68.24324324324324, 400, 400)" opacity="0.19"></path><path d="M255.28 258.69Q271.05 245.35 286.83 235.63 302.61 231.08 318.39 232.44 334.17 239.47 349.95 251.06 365.72 265.36 381.5 280.07 397.28 292.86 413.06 301.68 428.84 305.11 444.62 302.61 460.39 294.58 476.17 282.31 491.95 267.74 507.73 253.22 510.85 269.05 518.86 284.89 529.9 300.72 541.42 316.56 550.77 332.39 555.78 348.23 555.3 364.07 549.44 379.9 539.55 395.74 527.91 411.57 517.22 427.41 509.94 443.24 507.76 459.08 511.17 474.91 519.39 490.75 530.52 506.58 514.06 531.56 497.61 556.61 481.15 577.72 464.69 591.53 448.24 595.83 431.78 589.92 415.33 574.76 398.87 552.77 382.41 527.46 365.96 502.87 349.5 482.94 333.04 470.84 316.59 468.52 300.13 476.34 283.68 493.05 267.22 515.98 261.39 499.9 257.08 483.82 255.29 467.74 256.44 451.66 260.25 435.58 265.86 419.5 271.95 403.42 277.14 387.33 280.21 371.25 280.46 355.17 277.84 339.09 272.94 323.01 266.9 306.93 261.11 290.85 256.91 274.77 255.28 258.69" stroke-dasharray="8 12" transform="rotate(70.97297297297298, 400, 400)" opacity="0.85"></path><path d="M266.6 259.93Q281.1 249.26 295.61 242.58 310.11 240.81 324.61 244.17 339.12 252.22 353.62 263.87 368.12 277.56 382.63 291.44 397.13 303.64 411.64 312.53 426.14 316.91 440.64 316.18 455.15 310.45 469.65 300.49 484.16 287.64 498.66 273.62 504.36 288.53 513.3 303.44 523.74 318.35 533.64 333.26 541.09 348.17 544.62 363.08 543.55 377.99 538.09 392.9 529.31 407.81 518.9 422.72 508.91 437.63 501.26 452.54 497.46 467.45 498.24 482.36 503.45 497.27 512.07 512.18 497.19 535.18 482.32 556.26 467.44 572.61 452.56 582 437.69 583.19 422.81 576.01 407.93 561.43 393.06 541.41 378.18 518.64 363.3 496.18 348.43 477.07 333.55 463.87 318.67 458.35 303.8 461.26 288.92 472.21 274.04 489.72 269.26 475.36 266.37 461 265.93 446.64 268.04 432.28 272.29 417.91 277.83 403.55 283.61 389.19 288.48 374.83 291.51 360.47 292.11 346.1 290.15 331.74 286.02 317.38 280.52 303.02 274.73 288.66 269.76 274.3 266.6 259.93" stroke-dasharray="14 2" transform="rotate(73.7027027027027, 400, 400)" opacity="0.15"></path><path d="M279.31 262.03Q292.59 254.47 305.87 250.87 319.15 251.63 332.43 256.66 345.72 265.4 359 276.89 372.28 289.84 385.56 302.8 398.84 314.34 412.12 323.16 425.4 328.29 438.68 329.15 451.96 325.65 465.24 318.18 478.52 307.57 491.8 294.99 499 308.92 507.98 322.85 517.28 336.77 525.41 350.7 531.05 364.63 533.29 378.55 531.77 392.48 526.75 406.41 519.01 420.34 509.83 434.26 500.67 448.19 493.01 462.12 488.1 476.04 486.72 489.97 489.09 503.9 494.84 517.82 481.48 537.51 468.12 554.13 454.76 565.83 441.4 571.31 428.04 569.96 414.68 561.93 401.32 548.11 387.96 530.05 374.61 509.75 361.25 489.47 347.89 471.49 334.53 457.79 321.17 449.92 307.81 448.73 286.09 453.91 276.33 440.69 277.14 427.93 280.03 415.17 284.52 402.41 289.9 389.64 295.29 376.88 299.83 364.12 302.78 351.36 303.67 338.6 302.35 325.84 299.04 313.08 294.27 300.32 288.81 287.56 283.54 274.8 279.31 262.03" stroke-dasharray="3 12" transform="rotate(76.43243243243244, 400, 400)" opacity="0.36"></path><path d="M293.33 265.72Q305.41 261.41 317.49 260.69 329.57 263.6 341.66 269.9 353.74 279.01 365.82 290.11 377.9 302.19 389.98 314.16 402.07 324.94 414.15 333.56 426.23 339.23 438.31 341.45 450.39 340.01 462.48 335.04 474.56 326.99 486.64 316.59 494.28 329.45 502.54 342.31 510.34 355.17 516.65 368.03 520.65 380.88 521.81 393.74 519.98 406.6 515.4 419.46 508.67 432.32 500.68 445.17 492.46 458.03 485.1 470.89 479.56 483.75 476.57 496.6 476.51 509.46 479.4 522.32 467.49 537.87 455.58 549.9 443.67 557.33 431.76 559.49 419.85 556.17 407.94 547.69 396.03 534.81 384.12 518.68 372.21 500.78 360.3 482.72 348.39 466.12 336.48 452.5 324.57 443.08 312.66 438.72 293.9 437.39 287.08 423.68 288.94 412.4 292.37 401.12 296.94 389.83 302.04 378.55 307 367.27 311.18 355.98 314.02 344.7 315.15 333.42 314.43 322.13 311.95 310.85 308.04 299.57 303.2 288.29 298.07 277 293.33 265.72" stroke-dasharray="6 1" transform="rotate(79.16216216216216, 400, 400)" opacity="0.45"></path><path d="M308.39 271.64Q319.28 270.42 330.16 272.17 341.04 276.77 351.92 283.89 362.8 293.03 373.68 303.52 384.57 314.61 395.45 325.52 406.33 335.47 417.21 343.73 428.09 349.72 438.98 353.01 449.86 353.37 460.74 350.77 471.62 345.39 482.5 337.62 489.67 349.31 496.67 361 502.77 372.68 507.34 384.37 509.89 396.06 510.18 407.74 508.16 419.43 504.05 431.11 498.28 442.8 491.44 454.49 484.24 466.17 477.43 477.86 471.72 489.55 467.69 501.23 465.77 512.92 466.16 524.6 455.63 535.7 445.1 543.38 434.57 547.1 424.04 546.59 413.51 541.88 402.98 533.32 392.45 521.52 381.92 507.32 371.39 491.74 360.86 475.89 350.33 460.9 339.8 447.85 329.27 437.68 318.74 431.11 302.82 424.52 298.69 410.51 301.32 400.59 305.07 390.67 309.53 380.75 314.25 370.83 318.74 360.91 322.52 350.99 325.21 341.07 326.54 331.15 326.35 321.24 324.67 311.32 321.68 301.4 317.68 291.48 313.1 281.56 308.39 271.64" stroke-dasharray="9 6" transform="rotate(81.8918918918919, 400, 400)" opacity="0.28"></path><path d="M324.13 280.3Q333.79 281.71 343.45 285.39 353.1 291.13 362.76 298.61 372.42 307.44 382.07 317.11 391.73 327.11 401.39 336.89 411.04 345.9 420.7 353.65 430.36 359.73 440.01 363.79 449.67 365.61 459.33 365.09 476.82 364.98 490.08 378.1 494.45 388.51 497.44 398.91 498.79 409.32 498.41 419.73 496.33 430.14 492.71 440.54 487.83 450.95 482.1 461.36 475.95 471.77 469.89 482.17 464.4 492.58 459.91 502.99 456.78 513.4 455.25 523.8 446.05 530.6 436.84 534.46 427.63 535.17 418.43 532.68 409.22 527.14 400.01 518.85 390.81 508.26 381.6 495.96 372.4 482.62 363.19 468.96 353.98 455.75 344.78 443.71 335.57 433.49 326.36 425.66 313.08 415.35 311.17 401.41 314.28 392.76 318.08 384.11 322.28 375.46 326.53 366.81 330.49 358.16 333.87 349.51 337.23 332.21 337.14 314.91 335.07 306.26 332.05 297.61 328.3 288.95 324.13 280.3" stroke-dasharray="8 1" transform="rotate(84.62162162162161, 400, 400)" opacity="0.51"></path><path d="M340.06 292.04Q356.84 300.34 373.62 314.01 390.4 330.88 407.18 348.25 423.96 363.34 440.74 373.74 457.52 377.79 474.3 374.84 482.53 392.9 486.95 410.96 486.53 429.02 481.36 447.07 472.65 465.13 462.4 483.19 452.98 501.24 446.57 519.3 430.72 523.15 414.88 517.86 399.03 504.29 383.19 484.6 367.34 461.93 351.5 439.92 335.66 422.07 319.81 411.24 324.49 396.34 331.37 381.44 338.85 366.54 345.21 351.64 348.98 336.74 349.29 321.84 346.07 306.94 340.06 292.04" stroke-dasharray="3 11" transform="rotate(87.35135135135135, 400, 400)" opacity="0.20"></path><path d="M355.63 306.94Q369.78 316.93 383.93 330.04 398.08 344.81 412.23 359.61 426.37 372.78 440.52 382.85 454.67 388.71 468.82 389.69 473.87 404.83 475.88 419.96 474.53 435.1 470.02 450.23 463.08 465.37 454.85 480.5 446.63 495.64 439.77 510.77 426.46 509.54 413.14 502.24 399.83 489.67 386.52 473.23 373.21 454.77 359.9 436.33 346.58 419.97 333.27 407.51 338.56 394.94 344.88 382.37 351.22 369.8 356.56 357.23 360.03 344.66 361.08 332.08 359.53 319.51 355.63 306.94" stroke-dasharray="2 9" transform="rotate(90.08108108108108, 400, 400)" opacity="0.09"></path><path d="M370.34 324.88Q381.75 335 393.17 346.61 404.59 358.9 416 370.97 427.42 381.98 438.84 391.13 450.25 397.76 461.67 401.4 464.01 413.5 464.27 425.6 462.43 437.7 458.67 449.8 453.39 461.9 447.14 474 440.56 486.09 434.34 498.19 423.57 493.84 412.79 485.92 402.02 475.01 391.25 461.87 380.48 447.46 369.7 432.79 358.93 418.93 348.16 406.86 353.21 396.62 358.55 386.37 363.62 376.12 367.9 365.87 370.95 355.63 372.45 345.38 372.23 335.13 370.34 324.88" stroke-dasharray="9 6" transform="rotate(92.81081081081082, 400, 400)" opacity="0.53"></path><path d="M383.71 345.49Q400.91 363.64 418.12 382.34 435.33 398.58 452.54 409.77 452.14 427.79 447.32 445.8 439.2 463.82 429.64 481.83 413.26 469.05 396.88 450.51 380.51 429.17 364.13 408.44 372.3 392.7 379.25 376.96 383.37 361.23 383.71 345.49" stroke-dasharray="11 13" transform="rotate(95.54054054054053, 400, 400)" opacity="0.34"></path><path d="M395.4 368.16Q406.88 381.04 418.36 393.7 429.83 405.24 441.31 414.83 439.56 426.68 435.98 438.53 422.43 451.06 402.84 439.15 391.77 425.32 380.7 411.25 386.06 400.47 390.6 389.7 393.82 378.93 395.4 368.16" stroke-dasharray="0 8" transform="rotate(98.27027027027027, 400, 400)" opacity="0.84"></path></g></svg>